<svg width="169" height="100" viewBox="0 0 169 100" fill="none" xmlns="http://www.w3.org/2000/svg">
<path d="M63 68.7178C62.9892 74.1853 61.5507 79.5549 58.8272 84.2934C56.1037 89.0319 52.19 92.9744 47.4747 95.7296C42.7595 98.4847 37.4066 99.9566 31.9478 99.9991C26.4889 100.042 21.1139 98.6531 16.3565 95.9717V76.8221C17.8537 79.5144 20.0343 81.7629 22.6778 83.3401C25.3212 84.9173 28.3336 85.7673 31.4104 85.8041C34.4871 85.8409 37.519 85.0631 40.1992 83.5496C42.8795 82.036 45.1131 79.8403 46.6741 77.1846C48.235 74.5289 49.068 71.5074 49.0887 68.4257C49.1094 65.344 48.3172 62.3116 46.792 59.635C45.2669 56.9585 43.063 54.7329 40.4033 53.1833C37.7436 51.6338 34.7225 50.8152 31.6455 50.8105V37.4287H31.7384C40.0261 37.4276 47.9751 40.723 53.8374 46.5905C59.6998 52.458 62.9955 60.4171 63 68.7178Z" fill="white"/>
<path d="M28.9708 37.3272V50.764C24.7599 51.3092 20.8913 53.3712 18.0877 56.5649C15.2841 59.7585 13.7374 63.8652 13.7366 68.1177C13.7366 68.329 13.7366 68.5403 13.7366 68.7473H13.6691V99.7153H0V35.899H13.5889V42.7104L13.648 42.6724C18.1933 39.5639 23.4809 37.7194 28.9708 37.3272Z" fill="white"/>
<path d="M13.6269 0H0.0380067V33.0089H13.6269V0Z" fill="white"/>
<path d="M79.0567 54.178V42.6581H83.7144C84.5701 42.6581 85.2839 42.7837 85.8557 43.035C86.4275 43.2862 86.8573 43.635 87.1451 44.0812C87.4329 44.5237 87.5768 45.0337 87.5768 45.6112C87.5768 46.0612 87.4859 46.4568 87.3041 46.7981C87.1224 47.1356 86.8725 47.4131 86.5544 47.6306C86.2401 47.8443 85.8803 47.9962 85.4752 48.0862V48.1987C85.9182 48.2174 86.3329 48.3412 86.7191 48.5699C87.1091 48.7987 87.4253 49.1193 87.6677 49.5318C87.91 49.9405 88.0312 50.428 88.0312 50.9943C88.0312 51.6055 87.8778 52.1511 87.5711 52.6311C87.2682 53.1074 86.8194 53.4842 86.2249 53.7617C85.6304 54.0392 84.8977 54.178 84.0268 54.178H79.0567ZM81.5162 52.1867H83.5212C84.2066 52.1867 84.7065 52.0574 85.0208 51.7986C85.3351 51.5361 85.4922 51.1874 85.4922 50.7524C85.4922 50.4336 85.4146 50.1524 85.2593 49.9087C85.1041 49.6649 84.8826 49.4737 84.5948 49.3349C84.3108 49.1962 83.9719 49.1268 83.578 49.1268H81.5162V52.1867ZM81.5162 47.4787H83.3395C83.6765 47.4787 83.9756 47.4206 84.2369 47.3043C84.502 47.1843 84.7103 47.0156 84.8617 46.7981C85.017 46.5806 85.0946 46.3199 85.0946 46.0162C85.0946 45.6 84.945 45.2643 84.6459 45.0093C84.3505 44.7543 83.9302 44.6268 83.3849 44.6268H81.5162V47.4787Z" fill="white"/>
<path d="M89.5861 54.178V45.5381H91.9319V47.0456H92.0228C92.1819 46.5093 92.4488 46.1043 92.8237 45.8306C93.1986 45.5531 93.6303 45.4143 94.1187 45.4143C94.2399 45.4143 94.3706 45.4218 94.5107 45.4368C94.6508 45.4518 94.7738 45.4725 94.8799 45.4987V47.6249C94.7663 47.5912 94.6091 47.5612 94.4084 47.5349C94.2077 47.5087 94.0241 47.4956 93.8575 47.4956C93.5015 47.4956 93.1834 47.5724 92.9032 47.7262C92.6268 47.8762 92.4072 48.0862 92.2443 48.3562C92.0853 48.6262 92.0058 48.9374 92.0058 49.2899V54.178H89.5861Z" fill="white"/>
<path d="M101.726 50.4993V45.5381H104.145V54.178H101.822V52.6086H101.731C101.534 53.1149 101.207 53.5217 100.749 53.8292C100.294 54.1367 99.7396 54.2905 99.0845 54.2905C98.5014 54.2905 97.9883 54.1592 97.5452 53.8967C97.1022 53.6342 96.7557 53.2611 96.5058 52.7774C96.2596 52.2936 96.1347 51.7143 96.1309 51.0393V45.5381H98.5506V50.6118C98.5544 51.1218 98.6926 51.5249 98.9652 51.8211C99.2379 52.1174 99.6033 52.2655 100.061 52.2655C100.353 52.2655 100.626 52.1999 100.879 52.0686C101.133 51.9336 101.338 51.7349 101.493 51.4724C101.652 51.2099 101.73 50.8855 101.726 50.4993Z" fill="white"/>
<path d="M108.501 49.183V54.178H106.081V45.5381H108.387V47.0624H108.489C108.682 46.5599 109.006 46.1624 109.46 45.87C109.915 45.5737 110.466 45.4256 111.113 45.4256C111.719 45.4256 112.247 45.5568 112.698 45.8193C113.149 46.0818 113.499 46.4568 113.749 46.9443C113.999 47.4281 114.124 48.0055 114.124 48.6768V54.178H111.704V49.1043C111.708 48.5755 111.572 48.163 111.295 47.8668C111.019 47.5668 110.638 47.4168 110.153 47.4168C109.828 47.4168 109.54 47.4862 109.29 47.6249C109.044 47.7637 108.851 47.9662 108.711 48.2324C108.574 48.4949 108.504 48.8118 108.501 49.183Z" fill="white"/>
<path d="M119.973 54.3467C119.09 54.3467 118.327 54.1611 117.684 53.7899C117.044 53.4149 116.55 52.8936 116.201 52.2261C115.853 51.5549 115.679 50.7768 115.679 49.8918C115.679 48.9993 115.853 48.2193 116.201 47.5518C116.55 46.8806 117.044 46.3593 117.684 45.9881C118.327 45.6131 119.09 45.4256 119.973 45.4256C120.855 45.4256 121.616 45.6131 122.256 45.9881C122.9 46.3593 123.396 46.8806 123.744 47.5518C124.093 48.2193 124.267 48.9993 124.267 49.8918C124.267 50.7768 124.093 51.5549 123.744 52.2261C123.396 52.8936 122.9 53.4149 122.256 53.7899C121.616 54.1611 120.855 54.3467 119.973 54.3467ZM119.984 52.4905C120.386 52.4905 120.721 52.378 120.99 52.153C121.258 51.9243 121.461 51.613 121.597 51.2193C121.737 50.8255 121.807 50.3774 121.807 49.8749C121.807 49.3724 121.737 48.9243 121.597 48.5305C121.461 48.1368 121.258 47.8256 120.99 47.5968C120.721 47.3681 120.386 47.2537 119.984 47.2537C119.579 47.2537 119.238 47.3681 118.962 47.5968C118.689 47.8256 118.483 48.1368 118.343 48.5305C118.206 48.9243 118.138 49.3724 118.138 49.8749C118.138 50.3774 118.206 50.8255 118.343 51.2193C118.483 51.613 118.689 51.9243 118.962 52.153C119.238 52.378 119.579 52.4905 119.984 52.4905Z" fill="white"/>
<path d="M129.588 54.178V42.6581H134.177C135.056 42.6581 135.805 42.8137 136.426 43.125C137.051 43.4325 137.526 43.8694 137.852 44.4356C138.182 44.9981 138.346 45.66 138.346 46.4212C138.346 47.1862 138.18 47.8443 137.846 48.3955C137.513 48.943 137.03 49.363 136.398 49.6555C135.769 49.948 135.008 50.0943 134.115 50.0943H131.042V48.1368H133.717C134.187 48.1368 134.577 48.073 134.887 47.9456C135.198 47.8181 135.429 47.6268 135.58 47.3718C135.735 47.1168 135.813 46.7999 135.813 46.4212C135.813 46.0387 135.735 45.7162 135.58 45.4537C135.429 45.1912 135.196 44.9925 134.881 44.8575C134.571 44.7187 134.179 44.6493 133.706 44.6493H132.047V54.178H129.588ZM135.87 48.9355L138.761 54.178H136.046L133.217 48.9355H135.87Z" fill="white"/>
<path d="M143.874 54.3467C142.977 54.3467 142.204 54.1667 141.557 53.8067C140.913 53.443 140.417 52.9292 140.069 52.2655C139.72 51.598 139.546 50.8086 139.546 49.8974C139.546 49.0087 139.72 48.2287 140.069 47.5574C140.417 46.8862 140.907 46.3631 141.54 45.9881C142.176 45.6131 142.922 45.4256 143.778 45.4256C144.353 45.4256 144.889 45.5175 145.385 45.7012C145.885 45.8812 146.321 46.1531 146.692 46.5168C147.067 46.8806 147.358 47.3381 147.566 47.8893C147.775 48.4368 147.879 49.078 147.879 49.813V50.4711H140.512V48.9862H145.601C145.601 48.6412 145.525 48.3355 145.374 48.0693C145.222 47.8031 145.012 47.5949 144.743 47.4449C144.478 47.2912 144.17 47.2143 143.818 47.2143C143.45 47.2143 143.125 47.2987 142.841 47.4674C142.56 47.6324 142.341 47.8556 142.182 48.1368C142.023 48.4143 141.941 48.7237 141.937 49.0649V50.4768C141.937 50.9043 142.017 51.2736 142.176 51.5849C142.339 51.8961 142.568 52.1361 142.863 52.3049C143.159 52.4736 143.509 52.558 143.914 52.558C144.183 52.558 144.429 52.5205 144.653 52.4455C144.876 52.3705 145.067 52.258 145.226 52.108C145.385 51.958 145.506 51.7743 145.59 51.5568L147.828 51.703C147.714 52.2355 147.481 52.7005 147.129 53.098C146.781 53.4917 146.33 53.7992 145.777 54.0205C145.228 54.238 144.594 54.3467 143.874 54.3467Z" fill="white"/>
<path d="M149.458 54.178V45.5381H151.877V54.178H149.458ZM150.673 44.4243C150.314 44.4243 150.005 44.3062 149.747 44.07C149.494 43.83 149.367 43.5431 149.367 43.2094C149.367 42.8794 149.494 42.5962 149.747 42.36C150.005 42.12 150.314 42 150.673 42C151.033 42 151.34 42.12 151.593 42.36C151.851 42.5962 151.98 42.8794 151.98 43.2094C151.98 43.5431 151.851 43.83 151.593 44.07C151.34 44.3062 151.033 44.4243 150.673 44.4243Z" fill="white"/>
<path d="M161.075 48.0018L158.86 48.1368C158.822 47.9493 158.74 47.7806 158.615 47.6306C158.49 47.4768 158.326 47.3549 158.121 47.2649C157.921 47.1712 157.68 47.1243 157.4 47.1243C157.025 47.1243 156.709 47.2031 156.451 47.3606C156.194 47.5143 156.065 47.7206 156.065 47.9793C156.065 48.1855 156.148 48.3599 156.315 48.5024C156.482 48.6449 156.768 48.7593 157.173 48.8455L158.752 49.1605C159.6 49.333 160.232 49.6105 160.649 49.993C161.065 50.3755 161.274 50.878 161.274 51.5005C161.274 52.0668 161.105 52.5636 160.768 52.9911C160.435 53.4186 159.977 53.7524 159.394 53.9924C158.814 54.2286 158.146 54.3467 157.389 54.3467C156.234 54.3467 155.313 54.1086 154.628 53.6324C153.946 53.1524 153.547 52.4999 153.43 51.6749L155.81 51.5511C155.881 51.8999 156.056 52.1661 156.332 52.3499C156.608 52.5299 156.963 52.6199 157.394 52.6199C157.818 52.6199 158.159 52.5392 158.417 52.378C158.678 52.213 158.81 52.0011 158.814 51.7424C158.81 51.5249 158.718 51.3468 158.536 51.208C158.354 51.0655 158.074 50.9568 157.695 50.8818L156.184 50.5836C155.332 50.4149 154.698 50.1224 154.282 49.7062C153.869 49.2899 153.662 48.7593 153.662 48.1143C153.662 47.5593 153.814 47.0812 154.117 46.6799C154.424 46.2787 154.853 45.9693 155.406 45.7518C155.963 45.5343 156.614 45.4256 157.36 45.4256C158.462 45.4256 159.329 45.6562 159.962 46.1174C160.598 46.5787 160.969 47.2068 161.075 48.0018Z" fill="white"/>
<path d="M89.2694 67.2278C89.2694 68.4428 89.0479 69.4928 88.6049 70.3778C88.1618 71.2628 87.5541 71.9453 86.7816 72.4252C86.0091 72.9052 85.1268 73.1452 84.1347 73.1452C83.1426 73.1452 82.2603 72.9052 81.4878 72.4252C80.7153 71.9453 80.1075 71.2628 79.6645 70.3778C79.2215 69.4928 78.9999 68.4428 78.9999 67.2278C78.9999 66.0128 79.2215 64.9628 79.6645 64.0778C80.1075 63.1929 80.7153 62.5104 81.4878 62.0304C82.2603 61.5504 83.1426 61.3104 84.1347 61.3104C85.1268 61.3104 86.0091 61.5504 86.7816 62.0304C87.5541 62.5104 88.1618 63.1929 88.6049 64.0778C89.0479 64.9628 89.2694 66.0128 89.2694 67.2278ZM87.9062 67.2278C87.9062 66.2303 87.7377 65.3885 87.4007 64.7022C87.0675 64.016 86.615 63.4966 86.0432 63.1441C85.4752 62.7916 84.839 62.6154 84.1347 62.6154C83.4304 62.6154 82.7923 62.7916 82.2205 63.1441C81.6525 63.4966 81.2 64.016 80.863 64.7022C80.5298 65.3885 80.3631 66.2303 80.3631 67.2278C80.3631 68.2253 80.5298 69.0672 80.863 69.7534C81.2 70.4396 81.6525 70.959 82.2205 71.3115C82.7923 71.664 83.4304 71.8403 84.1347 71.8403C84.839 71.8403 85.4752 71.664 86.0432 71.3115C86.615 70.959 87.0675 70.4396 87.4007 69.7534C87.7377 69.0672 87.9062 68.2253 87.9062 67.2278Z" fill="white"/>
<path d="M94.7506 73.1677C94.0236 73.1677 93.3818 72.9859 92.8251 72.6221C92.2685 72.2546 91.833 71.7371 91.5187 71.0696C91.2044 70.3984 91.0473 69.6053 91.0473 68.6903C91.0473 67.7828 91.2044 66.9953 91.5187 66.3278C91.833 65.6603 92.2704 65.1447 92.8308 64.781C93.3912 64.4172 94.0388 64.2353 94.7734 64.2353C95.3414 64.2353 95.7901 64.3291 96.1195 64.5166C96.4528 64.7003 96.7065 64.9103 96.8807 65.1466C97.0586 65.3791 97.1968 65.5703 97.2953 65.7203H97.4089V61.4679H98.7494V72.9877H97.4543V71.6603H97.2953C97.1968 71.8178 97.0567 72.0165 96.875 72.2565C96.6932 72.4927 96.4338 72.7046 96.0968 72.8921C95.7598 73.0759 95.3111 73.1677 94.7506 73.1677ZM94.9324 71.9753C95.4701 71.9753 95.9245 71.8365 96.2956 71.559C96.6667 71.2778 96.9488 70.8896 97.1419 70.3946C97.3351 69.8959 97.4316 69.3203 97.4316 68.6678C97.4316 68.0228 97.337 67.4584 97.1476 66.9747C96.9583 66.4872 96.6781 66.1084 96.307 65.8385C95.9359 65.5647 95.4777 65.4278 94.9324 65.4278C94.3644 65.4278 93.8911 65.5722 93.5124 65.861C93.1375 66.1459 92.8554 66.5341 92.6661 67.0253C92.4805 67.5128 92.3878 68.0603 92.3878 68.6678C92.3878 69.2828 92.4824 69.8415 92.6718 70.344C92.8649 70.8428 93.1489 71.2403 93.5238 71.5365C93.9024 71.829 94.372 71.9753 94.9324 71.9753Z" fill="white"/>
<path d="M104.935 73.1677C104.147 73.1677 103.456 72.9821 102.862 72.6109C102.271 72.2396 101.809 71.7203 101.476 71.0528C101.146 70.3853 100.982 69.6053 100.982 68.7128C100.982 67.8128 101.146 67.0272 101.476 66.3559C101.809 65.6847 102.271 65.1635 102.862 64.7922C103.456 64.421 104.147 64.2353 104.935 64.2353C105.723 64.2353 106.412 64.421 107.002 64.7922C107.597 65.1635 108.059 65.6847 108.388 66.3559C108.722 67.0272 108.888 67.8128 108.888 68.7128C108.888 69.6053 108.722 70.3853 108.388 71.0528C108.059 71.7203 107.597 72.2396 107.002 72.6109C106.412 72.9821 105.723 73.1677 104.935 73.1677ZM104.935 71.9753C105.533 71.9753 106.025 71.8234 106.412 71.5196C106.798 71.2159 107.084 70.8165 107.269 70.3215C107.455 69.8265 107.548 69.2903 107.548 68.7128C107.548 68.1353 107.455 67.5972 107.269 67.0984C107.084 66.5997 106.798 66.1966 106.412 65.8891C106.025 65.5816 105.533 65.4278 104.935 65.4278C104.337 65.4278 103.844 65.5816 103.458 65.8891C103.072 66.1966 102.786 66.5997 102.6 67.0984C102.415 67.5972 102.322 68.1353 102.322 68.7128C102.322 69.2903 102.415 69.8265 102.6 70.3215C102.786 70.8165 103.072 71.2159 103.458 71.5196C103.844 71.8234 104.337 71.9753 104.935 71.9753Z" fill="white"/>
<path d="M112.275 67.7903V72.9877H110.934V64.3478H112.23V65.6978H112.343C112.548 65.2591 112.858 64.9066 113.275 64.6403C113.691 64.3703 114.229 64.2353 114.888 64.2353C115.478 64.2353 115.995 64.3553 116.438 64.5953C116.881 64.8316 117.226 65.1916 117.472 65.6753C117.718 66.1553 117.841 66.7628 117.841 67.4978V72.9877H116.501V67.5878C116.501 66.9091 116.323 66.3803 115.967 66.0016C115.611 65.6191 115.123 65.4278 114.502 65.4278C114.074 65.4278 113.691 65.5197 113.354 65.7035C113.021 65.8872 112.758 66.1553 112.565 66.5078C112.372 66.8603 112.275 67.2878 112.275 67.7903Z" fill="white"/>
<path d="M124.085 64.3478V65.4728H119.564V64.3478H124.085ZM120.882 62.2779H122.222V70.5128C122.222 70.8878 122.277 71.169 122.387 71.3565C122.5 71.5403 122.644 71.664 122.818 71.7278C122.996 71.7878 123.184 71.8178 123.381 71.8178C123.528 71.8178 123.65 71.8103 123.744 71.7953C123.839 71.7765 123.915 71.7615 123.972 71.7503L124.244 72.9427C124.153 72.9765 124.026 73.0102 123.864 73.044C123.701 73.0815 123.494 73.1002 123.244 73.1002C122.866 73.1002 122.495 73.0196 122.131 72.8584C121.771 72.6971 121.472 72.4515 121.234 72.1215C120.999 71.7915 120.882 71.3753 120.882 70.8728V62.2779Z" fill="white"/>
<path d="M129.552 73.1677C128.765 73.1677 128.073 72.9821 127.479 72.6109C126.888 72.2396 126.426 71.7203 126.093 71.0528C125.764 70.3853 125.599 69.6053 125.599 68.7128C125.599 67.8128 125.764 67.0272 126.093 66.3559C126.426 65.6847 126.888 65.1635 127.479 64.7922C128.073 64.421 128.765 64.2353 129.552 64.2353C130.34 64.2353 131.029 64.421 131.62 64.7922C132.214 65.1635 132.676 65.6847 133.006 66.3559C133.339 67.0272 133.505 67.8128 133.505 68.7128C133.505 69.6053 133.339 70.3853 133.006 71.0528C132.676 71.7203 132.214 72.2396 131.62 72.6109C131.029 72.9821 130.34 73.1677 129.552 73.1677ZM129.552 71.9753C130.15 71.9753 130.643 71.8234 131.029 71.5196C131.415 71.2159 131.701 70.8165 131.887 70.3215C132.072 69.8265 132.165 69.2903 132.165 68.7128C132.165 68.1353 132.072 67.5972 131.887 67.0984C131.701 66.5997 131.415 66.1966 131.029 65.8891C130.643 65.5816 130.15 65.4278 129.552 65.4278C128.954 65.4278 128.462 65.5816 128.075 65.8891C127.689 66.1966 127.403 66.5997 127.218 67.0984C127.032 67.5972 126.939 68.1353 126.939 68.7128C126.939 69.2903 127.032 69.8265 127.218 70.3215C127.403 70.8165 127.689 71.2159 128.075 71.5196C128.462 71.8234 128.954 71.9753 129.552 71.9753Z" fill="white"/>
<path d="M136.892 61.4679V72.9877H135.552V61.4679H136.892Z" fill="white"/>
<path d="M142.892 73.1677C142.104 73.1677 141.413 72.9821 140.818 72.6109C140.228 72.2396 139.766 71.7203 139.433 71.0528C139.103 70.3853 138.938 69.6053 138.938 68.7128C138.938 67.8128 139.103 67.0272 139.433 66.3559C139.766 65.6847 140.228 65.1635 140.818 64.7922C141.413 64.421 142.104 64.2353 142.892 64.2353C143.679 64.2353 144.369 64.421 144.959 64.7922C145.554 65.1635 146.016 65.6847 146.345 66.3559C146.678 67.0272 146.845 67.8128 146.845 68.7128C146.845 69.6053 146.678 70.3853 146.345 71.0528C146.016 71.7203 145.554 72.2396 144.959 72.6109C144.369 72.9821 143.679 73.1677 142.892 73.1677ZM142.892 71.9753C143.49 71.9753 143.982 71.8234 144.369 71.5196C144.755 71.2159 145.041 70.8165 145.226 70.3215C145.412 69.8265 145.505 69.2903 145.505 68.7128C145.505 68.1353 145.412 67.5972 145.226 67.0984C145.041 66.5997 144.755 66.1966 144.369 65.8891C143.982 65.5816 143.49 65.4278 142.892 65.4278C142.293 65.4278 141.801 65.5816 141.415 65.8891C141.029 66.1966 140.743 66.5997 140.557 67.0984C140.372 67.5972 140.279 68.1353 140.279 68.7128C140.279 69.2903 140.372 69.8265 140.557 70.3215C140.743 70.8165 141.029 71.2159 141.415 71.5196C141.801 71.8234 142.293 71.9753 142.892 71.9753Z" fill="white"/>
<path d="M152.413 76.4077C151.765 76.4077 151.209 76.3252 150.743 76.1602C150.277 75.999 149.889 75.7852 149.579 75.519C149.272 75.2565 149.028 74.9752 148.846 74.6752L149.914 73.9327C150.035 74.0902 150.188 74.2702 150.374 74.4727C150.559 74.679 150.813 74.8571 151.135 75.0071C151.46 75.1608 151.886 75.2377 152.413 75.2377C153.117 75.2377 153.698 75.069 154.157 74.7315C154.615 74.394 154.844 73.8652 154.844 73.1452V71.3903H154.73C154.632 71.5478 154.492 71.7428 154.31 71.9753C154.132 72.204 153.875 72.4084 153.537 72.5884C153.204 72.7646 152.754 72.8527 152.186 72.8527C151.481 72.8527 150.849 72.6877 150.289 72.3577C149.732 72.0278 149.291 71.5478 148.965 70.9178C148.643 70.2878 148.482 69.5228 148.482 68.6228C148.482 67.7378 148.639 66.9672 148.954 66.3109C149.268 65.651 149.705 65.141 150.266 64.781C150.826 64.4172 151.474 64.2353 152.208 64.2353C152.776 64.2353 153.227 64.3291 153.56 64.5166C153.897 64.7003 154.155 64.9103 154.333 65.1466C154.514 65.3791 154.655 65.5703 154.753 65.7203H154.889V64.3478H156.184V73.2352C156.184 73.9777 156.014 74.5815 155.673 75.0465C155.336 75.5152 154.882 75.8583 154.31 76.0758C153.742 76.2971 153.11 76.4077 152.413 76.4077ZM152.367 71.6603C152.905 71.6603 153.36 71.5384 153.731 71.2946C154.102 71.0509 154.384 70.7003 154.577 70.2428C154.77 69.7853 154.867 69.2378 154.867 68.6003C154.867 67.9778 154.772 67.4284 154.583 66.9522C154.393 66.4759 154.113 66.1028 153.742 65.8328C153.371 65.5628 152.913 65.4278 152.367 65.4278C151.799 65.4278 151.326 65.5703 150.947 65.8553C150.573 66.1403 150.29 66.5228 150.101 67.0028C149.916 67.4828 149.823 68.0153 149.823 68.6003C149.823 69.2003 149.917 69.7309 150.107 70.1921C150.3 70.6496 150.584 71.0096 150.959 71.2721C151.337 71.5309 151.807 71.6603 152.367 71.6603Z" fill="white"/>
<path d="M158.638 72.9877V64.3478H159.979V72.9877H158.638ZM159.32 62.9079C159.058 62.9079 158.833 62.8197 158.644 62.6435C158.458 62.4672 158.366 62.2554 158.366 62.0079C158.366 61.7604 158.458 61.5485 158.644 61.3723C158.833 61.196 159.058 61.1079 159.32 61.1079C159.581 61.1079 159.804 61.196 159.99 61.3723C160.179 61.5485 160.274 61.7604 160.274 62.0079C160.274 62.2554 160.179 62.4672 159.99 62.6435C159.804 62.8197 159.581 62.9079 159.32 62.9079Z" fill="white"/>
<path d="M165.001 73.1902C164.448 73.1902 163.947 73.0871 163.496 72.8809C163.045 72.6709 162.688 72.369 162.422 71.9753C162.157 71.5778 162.025 71.0978 162.025 70.5353C162.025 70.0403 162.123 69.639 162.32 69.3315C162.517 69.0203 162.78 68.7765 163.11 68.6003C163.439 68.424 163.803 68.2928 164.2 68.2065C164.602 68.1165 165.005 68.0453 165.41 67.9928C165.94 67.9253 166.37 67.8747 166.7 67.8409C167.033 67.8034 167.275 67.7416 167.427 67.6553C167.582 67.5691 167.659 67.4191 167.659 67.2053V67.1603C167.659 66.6053 167.506 66.1741 167.199 65.8666C166.896 65.5591 166.436 65.4053 165.819 65.4053C165.179 65.4053 164.677 65.5441 164.314 65.8216C163.95 66.0991 163.695 66.3953 163.547 66.7103L162.275 66.2603C162.502 65.7353 162.805 65.3266 163.184 65.0341C163.566 64.7378 163.983 64.5316 164.433 64.4153C164.888 64.2953 165.334 64.2353 165.774 64.2353C166.054 64.2353 166.376 64.2691 166.739 64.3366C167.107 64.4003 167.461 64.5335 167.801 64.736C168.146 64.9385 168.432 65.2441 168.659 65.6528C168.886 66.0616 169 66.6091 169 67.2953V72.9877H167.659V71.8178H167.591C167.5 72.0052 167.349 72.2059 167.137 72.4196C166.925 72.6334 166.643 72.8152 166.291 72.9652C165.938 73.1152 165.509 73.1902 165.001 73.1902ZM165.206 71.9977C165.736 71.9977 166.183 71.8946 166.546 71.6884C166.913 71.4821 167.19 71.2159 167.375 70.8896C167.565 70.5634 167.659 70.2203 167.659 69.8603V68.6453C167.603 68.7128 167.478 68.7747 167.285 68.8309C167.095 68.8834 166.876 68.9303 166.626 68.9715C166.38 69.009 166.139 69.0428 165.904 69.0728C165.673 69.099 165.486 69.1215 165.342 69.1403C164.994 69.1853 164.668 69.2584 164.365 69.3597C164.066 69.4572 163.824 69.6053 163.638 69.804C163.456 69.999 163.365 70.2653 163.365 70.6028C163.365 71.064 163.538 71.4128 163.882 71.649C164.231 71.8815 164.672 71.9977 165.206 71.9977Z" fill="white"/>
<path d="M79.4543 91.7975V80.2776H86.4749V81.5151H80.863V85.4076H86.1113V86.6451H80.863V90.56H86.5657V91.7975H79.4543Z" fill="white"/>
<path d="M95.0119 85.0926L93.8078 85.4301C93.732 85.2313 93.6203 85.0382 93.4726 84.8507C93.3287 84.6595 93.1318 84.502 92.8819 84.3782C92.632 84.2545 92.312 84.1926 91.922 84.1926C91.3881 84.1926 90.9431 84.3145 90.5872 84.5582C90.235 84.7982 90.0589 85.1038 90.0589 85.4751C90.0589 85.8051 90.1801 86.0657 90.4225 86.2569C90.6648 86.4482 91.0435 86.6076 91.5585 86.7351L92.8535 87.0501C93.6336 87.2376 94.2148 87.5244 94.5973 87.9107C94.9797 88.2932 95.171 88.7863 95.171 89.39C95.171 89.885 95.0271 90.3275 94.7393 90.7175C94.4553 91.1075 94.0577 91.415 93.5465 91.64C93.0353 91.865 92.4408 91.9775 91.763 91.9775C90.8731 91.9775 90.1366 91.7863 89.5534 91.4038C88.9703 91.0213 88.6011 90.4625 88.4458 89.7275L89.7181 89.4125C89.8393 89.8775 90.0684 90.2263 90.4054 90.4588C90.7462 90.6913 91.1912 90.8075 91.7402 90.8075C92.365 90.8075 92.8611 90.6763 93.2284 90.4138C93.5995 90.1475 93.785 89.8288 93.785 89.4575C93.785 89.1575 93.679 88.9063 93.467 88.7038C93.2549 88.4975 92.9293 88.3438 92.49 88.2425L91.0359 87.9051C90.2369 87.7176 89.65 87.4269 89.2751 87.0332C88.904 86.6357 88.7185 86.1388 88.7185 85.5426C88.7185 85.0551 88.8567 84.6238 89.1331 84.2488C89.4133 83.8739 89.7939 83.5795 90.2748 83.3657C90.7595 83.152 91.3086 83.0451 91.922 83.0451C92.7854 83.0451 93.4632 83.2326 93.9554 83.6076C94.4515 83.9826 94.8037 84.4776 95.0119 85.0926Z" fill="white"/>
<path d="M100.983 83.1576V84.2826H96.4618V83.1576H100.983ZM97.7795 81.0876H99.12V89.3225C99.12 89.6975 99.1749 89.9788 99.2847 90.1663C99.3983 90.35 99.5422 90.4738 99.7164 90.5375C99.8944 90.5975 100.082 90.6275 100.279 90.6275C100.426 90.6275 100.548 90.62 100.642 90.605C100.737 90.5863 100.813 90.5713 100.869 90.56L101.142 91.7525C101.051 91.7863 100.924 91.82 100.762 91.8538C100.599 91.8913 100.392 91.91 100.142 91.91C99.7637 91.91 99.3926 91.8294 99.0291 91.6681C98.6694 91.5069 98.3702 91.2613 98.1317 90.9313C97.8969 90.6013 97.7795 90.185 97.7795 89.6825V81.0876Z" fill="white"/>
<path d="M106.564 91.9775C105.723 91.9775 104.998 91.7938 104.388 91.4263C103.782 91.055 103.315 90.5375 102.985 89.8738C102.66 89.2063 102.497 88.43 102.497 87.5451C102.497 86.6601 102.66 85.8801 102.985 85.2051C103.315 84.5263 103.773 83.9976 104.36 83.6189C104.951 83.2364 105.64 83.0451 106.427 83.0451C106.882 83.0451 107.33 83.1201 107.774 83.2701C108.217 83.4201 108.62 83.6639 108.983 84.0014C109.347 84.3351 109.637 84.7776 109.852 85.3288C110.068 85.8801 110.176 86.5588 110.176 87.3651V87.9275H103.451V86.7801H108.813C108.813 86.2926 108.715 85.8576 108.518 85.4751C108.324 85.0926 108.048 84.7907 107.688 84.5695C107.332 84.3482 106.912 84.2376 106.427 84.2376C105.893 84.2376 105.431 84.3688 105.041 84.6313C104.655 84.8901 104.358 85.2276 104.15 85.6438C103.941 86.0601 103.837 86.5063 103.837 86.9826V87.7476C103.837 88.4 103.951 88.9532 104.178 89.4069C104.409 89.8569 104.729 90.2 105.138 90.4363C105.547 90.6688 106.022 90.785 106.564 90.785C106.916 90.785 107.234 90.7363 107.518 90.6388C107.806 90.5375 108.054 90.3875 108.262 90.1888C108.47 89.9863 108.631 89.735 108.745 89.435L110.04 89.795C109.904 90.23 109.674 90.6125 109.353 90.9425C109.031 91.2688 108.633 91.5238 108.16 91.7075C107.686 91.8875 107.154 91.9775 106.564 91.9775ZM105.746 81.9876L107.132 79.3777H108.699L106.927 81.9876H105.746Z" fill="white"/>
<path d="M116.01 83.1576V84.2826H111.488V83.1576H116.01ZM112.806 81.0876H114.147V89.3225C114.147 89.6975 114.201 89.9788 114.311 90.1663C114.425 90.35 114.569 90.4738 114.743 90.5375C114.921 90.5975 115.108 90.6275 115.305 90.6275C115.453 90.6275 115.574 90.62 115.669 90.605C115.763 90.5863 115.839 90.5713 115.896 90.56L116.169 91.7525C116.078 91.7863 115.951 91.82 115.788 91.8538C115.625 91.8913 115.419 91.91 115.169 91.91C114.79 91.91 114.419 91.8294 114.056 91.6681C113.696 91.5069 113.397 91.2613 113.158 90.9313C112.923 90.6013 112.806 90.185 112.806 89.6825V81.0876Z" fill="white"/>
<path d="M118.026 91.7975V83.1576H119.366V91.7975H118.026ZM118.708 81.7176C118.446 81.7176 118.221 81.6295 118.032 81.4533C117.846 81.277 117.753 81.0651 117.753 80.8176C117.753 80.5701 117.846 80.3583 118.032 80.182C118.221 80.0058 118.446 79.9176 118.708 79.9176C118.969 79.9176 119.192 80.0058 119.378 80.182C119.567 80.3583 119.662 80.5701 119.662 80.8176C119.662 81.0651 119.567 81.277 119.378 81.4533C119.192 81.6295 118.969 81.7176 118.708 81.7176Z" fill="white"/>
<path d="M125.366 91.9775C124.548 91.9775 123.844 91.7863 123.253 91.4038C122.662 91.0213 122.208 90.4944 121.89 89.8232C121.572 89.1519 121.413 88.385 121.413 87.5226C121.413 86.6451 121.576 85.8707 121.901 85.1995C122.231 84.5245 122.689 83.9976 123.276 83.6189C123.866 83.2364 124.556 83.0451 125.343 83.0451C125.957 83.0451 126.51 83.1576 127.002 83.3826C127.494 83.6076 127.897 83.9226 128.212 84.3276C128.526 84.7326 128.721 85.2051 128.797 85.7451H127.456C127.354 85.3513 127.127 85.0026 126.775 84.6988C126.426 84.3913 125.957 84.2376 125.366 84.2376C124.843 84.2376 124.385 84.3726 123.991 84.6426C123.601 84.9088 123.297 85.2857 123.077 85.7732C122.861 86.2569 122.753 86.8251 122.753 87.4776C122.753 88.145 122.859 88.7263 123.071 89.2213C123.287 89.7163 123.59 90.1006 123.98 90.3744C124.374 90.6481 124.836 90.785 125.366 90.785C125.714 90.785 126.031 90.725 126.315 90.605C126.599 90.485 126.839 90.3125 127.036 90.0875C127.233 89.8625 127.373 89.5925 127.456 89.2775H128.797C128.721 89.7875 128.534 90.2469 128.234 90.6556C127.939 91.0606 127.547 91.3831 127.059 91.6231C126.574 91.8594 126.01 91.9775 125.366 91.9775Z" fill="white"/>
<path d="M133.324 92C132.771 92 132.269 91.8969 131.818 91.6906C131.368 91.4806 131.01 91.1788 130.745 90.785C130.48 90.3875 130.347 89.9075 130.347 89.345C130.347 88.85 130.446 88.4488 130.643 88.1413C130.84 87.8301 131.103 87.5863 131.432 87.4101C131.762 87.2338 132.125 87.1026 132.523 87.0163C132.924 86.9263 133.327 86.8551 133.733 86.8026C134.263 86.7351 134.693 86.6844 135.022 86.6507C135.355 86.6132 135.598 86.5513 135.749 86.4651C135.904 86.3788 135.982 86.2288 135.982 86.0151V85.9701C135.982 85.4151 135.829 84.9838 135.522 84.6763C135.219 84.3688 134.759 84.2151 134.142 84.2151C133.502 84.2151 133 84.3538 132.636 84.6313C132.273 84.9088 132.017 85.2051 131.87 85.5201L130.597 85.0701C130.824 84.5451 131.127 84.1363 131.506 83.8438C131.889 83.5476 132.305 83.3414 132.756 83.2251C133.21 83.1051 133.657 83.0451 134.096 83.0451C134.376 83.0451 134.698 83.0789 135.062 83.1464C135.429 83.2101 135.783 83.3432 136.124 83.5457C136.469 83.7482 136.754 84.0538 136.982 84.4626C137.209 84.8713 137.322 85.4188 137.322 86.1051V91.7975H135.982V90.6275H135.914C135.823 90.815 135.671 91.0156 135.459 91.2294C135.247 91.4431 134.965 91.625 134.613 91.775C134.261 91.925 133.831 92 133.324 92ZM133.528 90.8075C134.058 90.8075 134.505 90.7044 134.869 90.4981C135.236 90.2919 135.512 90.0257 135.698 89.6994C135.887 89.3732 135.982 89.03 135.982 88.67V87.4551C135.925 87.5226 135.8 87.5844 135.607 87.6407C135.418 87.6932 135.198 87.7401 134.948 87.7813C134.702 87.8188 134.462 87.8526 134.227 87.8826C133.996 87.9088 133.808 87.9313 133.665 87.9501C133.316 87.995 132.99 88.0682 132.688 88.1694C132.388 88.2669 132.146 88.415 131.96 88.6138C131.779 88.8088 131.688 89.075 131.688 89.4125C131.688 89.8738 131.86 90.2225 132.205 90.4588C132.553 90.6913 132.994 90.8075 133.528 90.8075Z" fill="white"/>
</svg>
