<svg width="170" height="100" viewBox="0 0 170 100" fill="none" xmlns="http://www.w3.org/2000/svg">
<path d="M63.5 68.7178C63.4892 74.1853 62.0507 79.5549 59.3272 84.2934C56.6037 89.0319 52.69 92.9744 47.9747 95.7296C43.2595 98.4847 37.9066 99.9566 32.4478 99.9991C26.9889 100.042 21.6139 98.6531 16.8565 95.9717V76.8221C18.3537 79.5144 20.5343 81.7629 23.1778 83.3401C25.8212 84.9173 28.8337 85.7673 31.9104 85.8041C34.9871 85.8409 38.019 85.0631 40.6992 83.5496C43.3795 82.036 45.6131 79.8403 47.1741 77.1846C48.7351 74.5289 49.568 71.5074 49.5887 68.4257C49.6095 65.344 48.8172 62.3116 47.292 59.635C45.7669 56.9585 43.563 54.7329 40.9033 53.1833C38.2436 51.6338 35.2225 50.8152 32.1456 50.8105V37.4287H32.2384C40.5262 37.4276 48.4751 40.723 54.3375 46.5905C60.1998 52.458 63.4955 60.4171 63.5 68.7178Z" fill="#A09E9E"/>
<path d="M29.4708 37.3272V50.764C25.2599 51.3092 21.3913 53.3712 18.5877 56.5649C15.7841 59.7585 14.2374 63.8652 14.2366 68.1177C14.2366 68.329 14.2366 68.5403 14.2366 68.7473H14.1691V99.7153H0.5V35.899H14.0889V42.7104L14.148 42.6724C18.6933 39.5639 23.9809 37.7194 29.4708 37.3272Z" fill="#382B57"/>
<path d="M14.1269 0H0.538007V33.0089H14.1269V0Z" fill="#A09E9E"/>
<path d="M79.5568 54.178V42.6581H84.2144C85.0702 42.6581 85.784 42.7837 86.3558 43.035C86.9276 43.2862 87.3574 43.635 87.6452 44.0812C87.9329 44.5237 88.0768 45.0337 88.0768 45.6112C88.0768 46.0612 87.986 46.4568 87.8042 46.7981C87.6224 47.1356 87.3725 47.4131 87.0544 47.6306C86.7401 47.8443 86.3804 47.9962 85.9752 48.0862V48.1987C86.4183 48.2174 86.8329 48.3412 87.2192 48.5699C87.6092 48.7987 87.9254 49.1193 88.1677 49.5318C88.4101 49.9405 88.5312 50.428 88.5312 50.9943C88.5312 51.6055 88.3779 52.1511 88.0712 52.6311C87.7682 53.1074 87.3195 53.4842 86.725 53.7617C86.1305 54.0392 85.3978 54.178 84.5268 54.178H79.5568ZM82.0163 52.1867H84.0213C84.7067 52.1867 85.2065 52.0574 85.5208 51.7986C85.8351 51.5361 85.9923 51.1874 85.9923 50.7524C85.9923 50.4336 85.9146 50.1524 85.7594 49.9087C85.6041 49.6649 85.3826 49.4737 85.0948 49.3349C84.8108 49.1962 84.4719 49.1268 84.0781 49.1268H82.0163V52.1867ZM82.0163 47.4787H83.8395C84.1766 47.4787 84.4757 47.4206 84.737 47.3043C85.0021 47.1843 85.2103 47.0156 85.3618 46.7981C85.517 46.5806 85.5947 46.3199 85.5947 46.0162C85.5947 45.6 85.4451 45.2643 85.1459 45.0093C84.8506 44.7543 84.4303 44.6268 83.885 44.6268H82.0163V47.4787Z" fill="#A09E9E"/>
<path d="M90.0861 54.178V45.5381H92.432V47.0456H92.5229C92.6819 46.5093 92.9489 46.1043 93.3238 45.8306C93.6986 45.5531 94.1303 45.4143 94.6188 45.4143C94.74 45.4143 94.8706 45.4218 95.0107 45.4368C95.1508 45.4518 95.2739 45.4725 95.3799 45.4987V47.6249C95.2663 47.5912 95.1092 47.5612 94.9085 47.5349C94.7078 47.5087 94.5241 47.4956 94.3575 47.4956C94.0016 47.4956 93.6835 47.5724 93.4033 47.7262C93.1269 47.8762 92.9072 48.0862 92.7444 48.3562C92.5854 48.6262 92.5058 48.9374 92.5058 49.2899V54.178H90.0861Z" fill="#A09E9E"/>
<path d="M102.226 50.4993V45.5381H104.645V54.178H102.322V52.6086H102.231C102.035 53.1149 101.707 53.5217 101.249 53.8292C100.794 54.1367 100.24 54.2905 99.5846 54.2905C99.0014 54.2905 98.4883 54.1592 98.0453 53.8967C97.6022 53.6342 97.2558 53.2611 97.0058 52.7774C96.7597 52.2936 96.6347 51.7143 96.631 51.0393V45.5381H99.0506V50.6118C99.0544 51.1218 99.1926 51.5249 99.4653 51.8211C99.7379 52.1174 100.103 52.2655 100.562 52.2655C100.853 52.2655 101.126 52.1999 101.379 52.0686C101.633 51.9336 101.838 51.7349 101.993 51.4724C102.152 51.2099 102.23 50.8855 102.226 50.4993Z" fill="#A09E9E"/>
<path d="M109.001 49.183V54.178H106.581V45.5381H108.887V47.0624H108.989C109.182 46.5599 109.506 46.1624 109.961 45.87C110.415 45.5737 110.966 45.4256 111.613 45.4256C112.219 45.4256 112.748 45.5568 113.198 45.8193C113.649 46.0818 113.999 46.4568 114.249 46.9443C114.499 47.4281 114.624 48.0055 114.624 48.6768V54.178H112.204V49.1043C112.208 48.5755 112.072 48.163 111.795 47.8668C111.519 47.5668 111.138 47.4168 110.654 47.4168C110.328 47.4168 110.04 47.4862 109.79 47.6249C109.544 47.7637 109.351 47.9662 109.211 48.2324C109.074 48.4949 109.004 48.8118 109.001 49.183Z" fill="#A09E9E"/>
<path d="M120.473 54.3467C119.591 54.3467 118.828 54.1611 118.184 53.7899C117.544 53.4149 117.05 52.8936 116.701 52.2261C116.353 51.5549 116.179 50.7768 116.179 49.8918C116.179 48.9993 116.353 48.2193 116.701 47.5518C117.05 46.8806 117.544 46.3593 118.184 45.9881C118.828 45.6131 119.591 45.4256 120.473 45.4256C121.355 45.4256 122.116 45.6131 122.756 45.9881C123.4 46.3593 123.896 46.8806 124.244 47.5518C124.593 48.2193 124.767 48.9993 124.767 49.8918C124.767 50.7768 124.593 51.5549 124.244 52.2261C123.896 52.8936 123.4 53.4149 122.756 53.7899C122.116 54.1611 121.355 54.3467 120.473 54.3467ZM120.484 52.4905C120.886 52.4905 121.221 52.378 121.49 52.153C121.758 51.9243 121.961 51.613 122.097 51.2193C122.237 50.8255 122.308 50.3774 122.308 49.8749C122.308 49.3724 122.237 48.9243 122.097 48.5305C121.961 48.1368 121.758 47.8256 121.49 47.5968C121.221 47.3681 120.886 47.2537 120.484 47.2537C120.079 47.2537 119.738 47.3681 119.462 47.5968C119.189 47.8256 118.983 48.1368 118.843 48.5305C118.706 48.9243 118.638 49.3724 118.638 49.8749C118.638 50.3774 118.706 50.8255 118.843 51.2193C118.983 51.613 119.189 51.9243 119.462 52.153C119.738 52.378 120.079 52.4905 120.484 52.4905Z" fill="#A09E9E"/>
<path d="M130.088 54.178V42.6581H134.677C135.556 42.6581 136.305 42.8137 136.926 43.125C137.551 43.4325 138.027 43.8694 138.352 44.4356C138.682 44.9981 138.846 45.66 138.846 46.4212C138.846 47.1862 138.68 47.8443 138.346 48.3955C138.013 48.943 137.53 49.363 136.898 49.6555C136.269 49.948 135.508 50.0943 134.615 50.0943H131.542V48.1368H134.217C134.687 48.1368 135.077 48.073 135.387 47.9456C135.698 47.8181 135.929 47.6268 136.08 47.3718C136.235 47.1168 136.313 46.7999 136.313 46.4212C136.313 46.0387 136.235 45.7162 136.08 45.4537C135.929 45.1912 135.696 44.9925 135.382 44.8575C135.071 44.7187 134.679 44.6493 134.206 44.6493H132.547V54.178H130.088ZM136.37 48.9355L139.261 54.178H136.546L133.717 48.9355H136.37Z" fill="#A09E9E"/>
<path d="M144.374 54.3467C143.477 54.3467 142.704 54.1667 142.057 53.8067C141.413 53.443 140.917 52.9292 140.569 52.2655C140.22 51.598 140.046 50.8086 140.046 49.8974C140.046 49.0087 140.22 48.2287 140.569 47.5574C140.917 46.8862 141.408 46.3631 142.04 45.9881C142.676 45.6131 143.422 45.4256 144.278 45.4256C144.853 45.4256 145.389 45.5175 145.885 45.7012C146.385 45.8812 146.821 46.1531 147.192 46.5168C147.567 46.8806 147.858 47.3381 148.066 47.8893C148.275 48.4368 148.379 49.078 148.379 49.813V50.4711H141.012V48.9862H146.101C146.101 48.6412 146.025 48.3355 145.874 48.0693C145.722 47.8031 145.512 47.5949 145.243 47.4449C144.978 47.2912 144.67 47.2143 144.318 47.2143C143.95 47.2143 143.625 47.2987 143.341 47.4674C143.06 47.6324 142.841 47.8556 142.682 48.1368C142.523 48.4143 142.441 48.7237 142.438 49.0649V50.4768C142.438 50.9043 142.517 51.2736 142.676 51.5849C142.839 51.8961 143.068 52.1361 143.363 52.3049C143.659 52.4736 144.009 52.558 144.414 52.558C144.683 52.558 144.929 52.5205 145.153 52.4455C145.376 52.3705 145.567 52.258 145.726 52.108C145.885 51.958 146.006 51.7743 146.09 51.5568L148.328 51.703C148.214 52.2355 147.981 52.7005 147.629 53.098C147.281 53.4917 146.83 53.7992 146.277 54.0205C145.728 54.238 145.094 54.3467 144.374 54.3467Z" fill="#A09E9E"/>
<path d="M149.958 54.178V45.5381H152.378V54.178H149.958ZM151.173 44.4243C150.814 44.4243 150.505 44.3062 150.248 44.07C149.994 43.83 149.867 43.5431 149.867 43.2094C149.867 42.8794 149.994 42.5962 150.248 42.36C150.505 42.12 150.814 42 151.173 42C151.533 42 151.84 42.12 152.094 42.36C152.351 42.5962 152.48 42.8794 152.48 43.2094C152.48 43.5431 152.351 43.83 152.094 44.07C151.84 44.3062 151.533 44.4243 151.173 44.4243Z" fill="#A09E9E"/>
<path d="M161.575 48.0018L159.36 48.1368C159.322 47.9493 159.24 47.7806 159.115 47.6306C158.991 47.4768 158.826 47.3549 158.621 47.2649C158.421 47.1712 158.18 47.1243 157.9 47.1243C157.525 47.1243 157.209 47.2031 156.951 47.3606C156.694 47.5143 156.565 47.7206 156.565 47.9793C156.565 48.1855 156.648 48.3599 156.815 48.5024C156.982 48.6449 157.268 48.7593 157.673 48.8455L159.252 49.1605C160.1 49.333 160.732 49.6105 161.149 49.993C161.565 50.3755 161.774 50.878 161.774 51.5005C161.774 52.0668 161.605 52.5636 161.268 52.9911C160.935 53.4186 160.477 53.7524 159.894 53.9924C159.314 54.2286 158.646 54.3467 157.889 54.3467C156.734 54.3467 155.813 54.1086 155.128 53.6324C154.447 53.1524 154.047 52.4999 153.93 51.6749L156.31 51.5511C156.382 51.8999 156.556 52.1661 156.832 52.3499C157.109 52.5299 157.463 52.6199 157.894 52.6199C158.318 52.6199 158.659 52.5392 158.917 52.378C159.178 52.213 159.311 52.0011 159.314 51.7424C159.311 51.5249 159.218 51.3468 159.036 51.208C158.854 51.0655 158.574 50.9568 158.195 50.8818L156.684 50.5836C155.832 50.4149 155.198 50.1224 154.782 49.7062C154.369 49.2899 154.163 48.7593 154.163 48.1143C154.163 47.5593 154.314 47.0812 154.617 46.6799C154.924 46.2787 155.353 45.9693 155.906 45.7518C156.463 45.5343 157.114 45.4256 157.86 45.4256C158.962 45.4256 159.829 45.6562 160.462 46.1174C161.098 46.5787 161.469 47.2068 161.575 48.0018Z" fill="#A09E9E"/>
<path d="M89.7695 67.2278C89.7695 68.4428 89.548 69.4928 89.1049 70.3778C88.6619 71.2628 88.0541 71.9453 87.2816 72.4252C86.5092 72.9052 85.6269 73.1452 84.6347 73.1452C83.6426 73.1452 82.7603 72.9052 81.9879 72.4252C81.2154 71.9453 80.6076 71.2628 80.1646 70.3778C79.7215 69.4928 79.5 68.4428 79.5 67.2278C79.5 66.0128 79.7215 64.9628 80.1646 64.0778C80.6076 63.1929 81.2154 62.5104 81.9879 62.0304C82.7603 61.5504 83.6426 61.3104 84.6347 61.3104C85.6269 61.3104 86.5092 61.5504 87.2816 62.0304C88.0541 62.5104 88.6619 63.1929 89.1049 64.0778C89.548 64.9628 89.7695 66.0128 89.7695 67.2278ZM88.4063 67.2278C88.4063 66.2303 88.2378 65.3885 87.9008 64.7022C87.5675 64.016 87.115 63.4966 86.5432 63.1441C85.9752 62.7916 85.3391 62.6154 84.6347 62.6154C83.9304 62.6154 83.2924 62.7916 82.7206 63.1441C82.1526 63.4966 81.7001 64.016 81.363 64.7022C81.0298 65.3885 80.8632 66.2303 80.8632 67.2278C80.8632 68.2253 81.0298 69.0672 81.363 69.7534C81.7001 70.4396 82.1526 70.959 82.7206 71.3115C83.2924 71.664 83.9304 71.8403 84.6347 71.8403C85.3391 71.8403 85.9752 71.664 86.5432 71.3115C87.115 70.959 87.5675 70.4396 87.9008 69.7534C88.2378 69.0672 88.4063 68.2253 88.4063 67.2278Z" fill="#A09E9E"/>
<path d="M95.2507 73.1677C94.5237 73.1677 93.8818 72.9859 93.3252 72.6221C92.7685 72.2546 92.3331 71.7371 92.0188 71.0696C91.7045 70.3984 91.5473 69.6053 91.5473 68.6903C91.5473 67.7828 91.7045 66.9953 92.0188 66.3278C92.3331 65.6603 92.7704 65.1447 93.3309 64.781C93.8913 64.4172 94.5388 64.2353 95.2734 64.2353C95.8414 64.2353 96.2902 64.3291 96.6196 64.5166C96.9528 64.7003 97.2065 64.9103 97.3807 65.1466C97.5587 65.3791 97.6969 65.5703 97.7954 65.7203H97.909V61.4679H99.2494V72.9877H97.9544V71.6603H97.7954C97.6969 71.8178 97.5568 72.0165 97.375 72.2565C97.1933 72.4927 96.9339 72.7046 96.5969 72.8921C96.2599 73.0759 95.8111 73.1677 95.2507 73.1677ZM95.4325 71.9753C95.9702 71.9753 96.4246 71.8365 96.7957 71.559C97.1668 71.2778 97.4489 70.8896 97.642 70.3946C97.8351 69.8959 97.9317 69.3203 97.9317 68.6678C97.9317 68.0228 97.837 67.4584 97.6477 66.9747C97.4583 66.4872 97.1781 66.1084 96.807 65.8385C96.4359 65.5647 95.9778 65.4278 95.4325 65.4278C94.8645 65.4278 94.3911 65.5722 94.0125 65.861C93.6376 66.1459 93.3555 66.5341 93.1661 67.0253C92.9806 67.5128 92.8878 68.0603 92.8878 68.6678C92.8878 69.2828 92.9825 69.8415 93.1718 70.344C93.3649 70.8428 93.6489 71.2403 94.0238 71.5365C94.4025 71.829 94.872 71.9753 95.4325 71.9753Z" fill="#A09E9E"/>
<path d="M105.435 73.1677C104.647 73.1677 103.956 72.9821 103.362 72.6109C102.771 72.2396 102.309 71.7203 101.976 71.0528C101.646 70.3853 101.482 69.6053 101.482 68.7128C101.482 67.8128 101.646 67.0272 101.976 66.3559C102.309 65.6847 102.771 65.1635 103.362 64.7922C103.956 64.421 104.647 64.2353 105.435 64.2353C106.223 64.2353 106.912 64.421 107.503 64.7922C108.097 65.1635 108.559 65.6847 108.888 66.3559C109.222 67.0272 109.388 67.8128 109.388 68.7128C109.388 69.6053 109.222 70.3853 108.888 71.0528C108.559 71.7203 108.097 72.2396 107.503 72.6109C106.912 72.9821 106.223 73.1677 105.435 73.1677ZM105.435 71.9753C106.033 71.9753 106.526 71.8234 106.912 71.5196C107.298 71.2159 107.584 70.8165 107.769 70.3215C107.955 69.8265 108.048 69.2903 108.048 68.7128C108.048 68.1353 107.955 67.5972 107.769 67.0984C107.584 66.5997 107.298 66.1966 106.912 65.8891C106.526 65.5816 106.033 65.4278 105.435 65.4278C104.837 65.4278 104.344 65.5816 103.958 65.8891C103.572 66.1966 103.286 66.5997 103.101 67.0984C102.915 67.5972 102.822 68.1353 102.822 68.7128C102.822 69.2903 102.915 69.8265 103.101 70.3215C103.286 70.8165 103.572 71.2159 103.958 71.5196C104.344 71.8234 104.837 71.9753 105.435 71.9753Z" fill="#A09E9E"/>
<path d="M112.775 67.7903V72.9877H111.435V64.3478H112.73V65.6978H112.843C113.048 65.2591 113.358 64.9066 113.775 64.6403C114.191 64.3703 114.729 64.2353 115.388 64.2353C115.979 64.2353 116.495 64.3553 116.938 64.5953C117.382 64.8316 117.726 65.1916 117.972 65.6753C118.218 66.1553 118.341 66.7628 118.341 67.4978V72.9877H117.001V67.5878C117.001 66.9091 116.823 66.3803 116.467 66.0016C116.111 65.6191 115.623 65.4278 115.002 65.4278C114.574 65.4278 114.191 65.5197 113.854 65.7035C113.521 65.8872 113.258 66.1553 113.065 66.5078C112.872 66.8603 112.775 67.2878 112.775 67.7903Z" fill="#A09E9E"/>
<path d="M124.585 64.3478V65.4728H120.064V64.3478H124.585ZM121.382 62.2779H122.722V70.5128C122.722 70.8878 122.777 71.169 122.887 71.3565C123 71.5403 123.144 71.664 123.319 71.7278C123.497 71.7878 123.684 71.8178 123.881 71.8178C124.029 71.8178 124.15 71.8103 124.244 71.7953C124.339 71.7765 124.415 71.7615 124.472 71.7503L124.744 72.9427C124.653 72.9765 124.527 73.0102 124.364 73.044C124.201 73.0815 123.994 73.1002 123.745 73.1002C123.366 73.1002 122.995 73.0196 122.631 72.8584C122.272 72.6971 121.972 72.4515 121.734 72.1215C121.499 71.7915 121.382 71.3753 121.382 70.8728V62.2779Z" fill="#A09E9E"/>
<path d="M130.052 73.1677C129.265 73.1677 128.574 72.9821 127.979 72.6109C127.388 72.2396 126.926 71.7203 126.593 71.0528C126.264 70.3853 126.099 69.6053 126.099 68.7128C126.099 67.8128 126.264 67.0272 126.593 66.3559C126.926 65.6847 127.388 65.1635 127.979 64.7922C128.574 64.421 129.265 64.2353 130.052 64.2353C130.84 64.2353 131.529 64.421 132.12 64.7922C132.714 65.1635 133.176 65.6847 133.506 66.3559C133.839 67.0272 134.006 67.8128 134.006 68.7128C134.006 69.6053 133.839 70.3853 133.506 71.0528C133.176 71.7203 132.714 72.2396 132.12 72.6109C131.529 72.9821 130.84 73.1677 130.052 73.1677ZM130.052 71.9753C130.651 71.9753 131.143 71.8234 131.529 71.5196C131.915 71.2159 132.201 70.8165 132.387 70.3215C132.572 69.8265 132.665 69.2903 132.665 68.7128C132.665 68.1353 132.572 67.5972 132.387 67.0984C132.201 66.5997 131.915 66.1966 131.529 65.8891C131.143 65.5816 130.651 65.4278 130.052 65.4278C129.454 65.4278 128.962 65.5816 128.575 65.8891C128.189 66.1966 127.903 66.5997 127.718 67.0984C127.532 67.5972 127.439 68.1353 127.439 68.7128C127.439 69.2903 127.532 69.8265 127.718 70.3215C127.903 70.8165 128.189 71.2159 128.575 71.5196C128.962 71.8234 129.454 71.9753 130.052 71.9753Z" fill="#A09E9E"/>
<path d="M137.392 61.4679V72.9877H136.052V61.4679H137.392Z" fill="#A09E9E"/>
<path d="M143.392 73.1677C142.604 73.1677 141.913 72.9821 141.319 72.6109C140.728 72.2396 140.266 71.7203 139.933 71.0528C139.603 70.3853 139.438 69.6053 139.438 68.7128C139.438 67.8128 139.603 67.0272 139.933 66.3559C140.266 65.6847 140.728 65.1635 141.319 64.7922C141.913 64.421 142.604 64.2353 143.392 64.2353C144.179 64.2353 144.869 64.421 145.459 64.7922C146.054 65.1635 146.516 65.6847 146.845 66.3559C147.178 67.0272 147.345 67.8128 147.345 68.7128C147.345 69.6053 147.178 70.3853 146.845 71.0528C146.516 71.7203 146.054 72.2396 145.459 72.6109C144.869 72.9821 144.179 73.1677 143.392 73.1677ZM143.392 71.9753C143.99 71.9753 144.482 71.8234 144.869 71.5196C145.255 71.2159 145.541 70.8165 145.726 70.3215C145.912 69.8265 146.005 69.2903 146.005 68.7128C146.005 68.1353 145.912 67.5972 145.726 67.0984C145.541 66.5997 145.255 66.1966 144.869 65.8891C144.482 65.5816 143.99 65.4278 143.392 65.4278C142.793 65.4278 142.301 65.5816 141.915 65.8891C141.529 66.1966 141.243 66.5997 141.057 67.0984C140.872 67.5972 140.779 68.1353 140.779 68.7128C140.779 69.2903 140.872 69.8265 141.057 70.3215C141.243 70.8165 141.529 71.2159 141.915 71.5196C142.301 71.8234 142.793 71.9753 143.392 71.9753Z" fill="#A09E9E"/>
<path d="M152.913 76.4077C152.265 76.4077 151.709 76.3252 151.243 76.1602C150.777 75.999 150.389 75.7852 150.079 75.519C149.772 75.2565 149.528 74.9752 149.346 74.6752L150.414 73.9327C150.535 74.0902 150.688 74.2702 150.874 74.4727C151.059 74.679 151.313 74.8571 151.635 75.0071C151.961 75.1608 152.387 75.2377 152.913 75.2377C153.617 75.2377 154.198 75.069 154.657 74.7315C155.115 74.394 155.344 73.8652 155.344 73.1452V71.3903H155.23C155.132 71.5478 154.992 71.7428 154.81 71.9753C154.632 72.204 154.375 72.4084 154.038 72.5884C153.704 72.7646 153.254 72.8527 152.686 72.8527C151.981 72.8527 151.349 72.6877 150.789 72.3577C150.232 72.0278 149.791 71.5478 149.465 70.9178C149.143 70.2878 148.982 69.5228 148.982 68.6228C148.982 67.7378 149.139 66.9672 149.454 66.3109C149.768 65.651 150.205 65.141 150.766 64.781C151.326 64.4172 151.974 64.2353 152.708 64.2353C153.276 64.2353 153.727 64.3291 154.06 64.5166C154.397 64.7003 154.655 64.9103 154.833 65.1466C155.015 65.3791 155.155 65.5703 155.253 65.7203H155.389V64.3478H156.684V73.2352C156.684 73.9777 156.514 74.5815 156.173 75.0465C155.836 75.5152 155.382 75.8583 154.81 76.0758C154.242 76.2971 153.61 76.4077 152.913 76.4077ZM152.867 71.6603C153.405 71.6603 153.86 71.5384 154.231 71.2946C154.602 71.0509 154.884 70.7003 155.077 70.2428C155.27 69.7853 155.367 69.2378 155.367 68.6003C155.367 67.9778 155.272 67.4284 155.083 66.9522C154.893 66.4759 154.613 66.1028 154.242 65.8328C153.871 65.5628 153.413 65.4278 152.867 65.4278C152.299 65.4278 151.826 65.5703 151.447 65.8553C151.073 66.1403 150.79 66.5228 150.601 67.0028C150.416 67.4828 150.323 68.0153 150.323 68.6003C150.323 69.2003 150.417 69.7309 150.607 70.1921C150.8 70.6496 151.084 71.0096 151.459 71.2721C151.837 71.5309 152.307 71.6603 152.867 71.6603Z" fill="#A09E9E"/>
<path d="M159.138 72.9877V64.3478H160.479V72.9877H159.138ZM159.82 62.9079C159.559 62.9079 159.333 62.8197 159.144 62.6435C158.958 62.4672 158.866 62.2554 158.866 62.0079C158.866 61.7604 158.958 61.5485 159.144 61.3723C159.333 61.196 159.559 61.1079 159.82 61.1079C160.081 61.1079 160.305 61.196 160.49 61.3723C160.679 61.5485 160.774 61.7604 160.774 62.0079C160.774 62.2554 160.679 62.4672 160.49 62.6435C160.305 62.8197 160.081 62.9079 159.82 62.9079Z" fill="#A09E9E"/>
<path d="M165.501 73.1902C164.948 73.1902 164.447 73.0871 163.996 72.8809C163.545 72.6709 163.188 72.369 162.923 71.9753C162.657 71.5778 162.525 71.0978 162.525 70.5353C162.525 70.0403 162.623 69.639 162.82 69.3315C163.017 69.0203 163.28 68.7765 163.61 68.6003C163.939 68.424 164.303 68.2928 164.7 68.2065C165.102 68.1165 165.505 68.0453 165.91 67.9928C166.44 67.9253 166.87 67.8747 167.2 67.8409C167.533 67.8034 167.775 67.7416 167.927 67.6553C168.082 67.5691 168.16 67.4191 168.16 67.2053V67.1603C168.16 66.6053 168.006 66.1741 167.699 65.8666C167.396 65.5591 166.936 65.4053 166.319 65.4053C165.679 65.4053 165.177 65.5441 164.814 65.8216C164.45 66.0991 164.195 66.3953 164.047 66.7103L162.775 66.2603C163.002 65.7353 163.305 65.3266 163.684 65.0341C164.066 64.7378 164.483 64.5316 164.933 64.4153C165.388 64.2953 165.834 64.2353 166.274 64.2353C166.554 64.2353 166.876 64.2691 167.239 64.3366C167.607 64.4003 167.961 64.5335 168.302 64.736C168.646 64.9385 168.932 65.2441 169.159 65.6528C169.386 66.0616 169.5 66.6091 169.5 67.2953V72.9877H168.16V71.8178H168.091C168 72.0052 167.849 72.2059 167.637 72.4196C167.425 72.6334 167.143 72.8152 166.791 72.9652C166.438 73.1152 166.009 73.1902 165.501 73.1902ZM165.706 71.9977C166.236 71.9977 166.683 71.8946 167.046 71.6884C167.414 71.4821 167.69 71.2159 167.876 70.8896C168.065 70.5634 168.16 70.2203 168.16 69.8603V68.6453C168.103 68.7128 167.978 68.7747 167.785 68.8309C167.595 68.8834 167.376 68.9303 167.126 68.9715C166.88 69.009 166.639 69.0428 166.404 69.0728C166.173 69.099 165.986 69.1215 165.842 69.1403C165.494 69.1853 165.168 69.2584 164.865 69.3597C164.566 69.4572 164.324 69.6053 164.138 69.804C163.956 69.999 163.865 70.2653 163.865 70.6028C163.865 71.064 164.038 71.4128 164.382 71.649C164.731 71.8815 165.172 71.9977 165.706 71.9977Z" fill="#A09E9E"/>
<path d="M79.9544 91.7975V80.2776H86.9749V81.5151H81.363V85.4076H86.6114V86.6451H81.363V90.56H87.0658V91.7975H79.9544Z" fill="#A09E9E"/>
<path d="M95.512 85.0926L94.3078 85.4301C94.2321 85.2313 94.1204 85.0382 93.9727 84.8507C93.8288 84.6595 93.6319 84.502 93.382 84.3782C93.1321 84.2545 92.8121 84.1926 92.4221 84.1926C91.8881 84.1926 91.4432 84.3145 91.0873 84.5582C90.7351 84.7982 90.559 85.1038 90.559 85.4751C90.559 85.8051 90.6802 86.0657 90.9225 86.2569C91.1649 86.4482 91.5435 86.6076 92.0585 86.7351L93.3536 87.0501C94.1336 87.2376 94.7149 87.5244 95.0973 87.9107C95.4798 88.2932 95.671 88.7863 95.671 89.39C95.671 89.885 95.5271 90.3275 95.2393 90.7175C94.9553 91.1075 94.5577 91.415 94.0465 91.64C93.5353 91.865 92.9408 91.9775 92.263 91.9775C91.3731 91.9775 90.6366 91.7863 90.0535 91.4038C89.4703 91.0213 89.1011 90.4625 88.9459 89.7275L90.2182 89.4125C90.3394 89.8775 90.5685 90.2263 90.9055 90.4588C91.2463 90.6913 91.6912 90.8075 92.2403 90.8075C92.8651 90.8075 93.3612 90.6763 93.7285 90.4138C94.0996 90.1475 94.2851 89.8288 94.2851 89.4575C94.2851 89.1575 94.1791 88.9063 93.967 88.7038C93.755 88.4975 93.4293 88.3438 92.9901 88.2425L91.536 87.9051C90.737 87.7176 90.15 87.4269 89.7752 87.0332C89.4041 86.6357 89.2185 86.1388 89.2185 85.5426C89.2185 85.0551 89.3567 84.6238 89.6332 84.2488C89.9134 83.8739 90.2939 83.5795 90.7748 83.3657C91.2595 83.152 91.8086 83.0451 92.4221 83.0451C93.2854 83.0451 93.9632 83.2326 94.4555 83.6076C94.9516 83.9826 95.3037 84.4776 95.512 85.0926Z" fill="#A09E9E"/>
<path d="M101.483 83.1576V84.2826H96.9618V83.1576H101.483ZM98.2796 81.0876H99.6201V89.3225C99.6201 89.6975 99.675 89.9788 99.7848 90.1663C99.8984 90.35 100.042 90.4738 100.216 90.5375C100.394 90.5975 100.582 90.6275 100.779 90.6275C100.926 90.6275 101.048 90.62 101.142 90.605C101.237 90.5863 101.313 90.5713 101.37 90.56L101.642 91.7525C101.551 91.7863 101.424 91.82 101.262 91.8538C101.099 91.8913 100.892 91.91 100.642 91.91C100.264 91.91 99.8927 91.8294 99.5292 91.6681C99.1695 91.5069 98.8703 91.2613 98.6317 90.9313C98.397 90.6013 98.2796 90.185 98.2796 89.6825V81.0876Z" fill="#A09E9E"/>
<path d="M107.064 91.9775C106.223 91.9775 105.498 91.7938 104.888 91.4263C104.282 91.055 103.815 90.5375 103.485 89.8738C103.16 89.2063 102.997 88.43 102.997 87.5451C102.997 86.6601 103.16 85.8801 103.485 85.2051C103.815 84.5263 104.273 83.9976 104.86 83.6189C105.451 83.2364 106.14 83.0451 106.927 83.0451C107.382 83.0451 107.831 83.1201 108.274 83.2701C108.717 83.4201 109.12 83.6639 109.483 84.0014C109.847 84.3351 110.137 84.7776 110.352 85.3288C110.568 85.8801 110.676 86.5588 110.676 87.3651V87.9275H103.951V86.7801H109.313C109.313 86.2926 109.215 85.8576 109.018 85.4751C108.825 85.0926 108.548 84.7907 108.188 84.5695C107.832 84.3482 107.412 84.2376 106.927 84.2376C106.393 84.2376 105.932 84.3688 105.541 84.6313C105.155 84.8901 104.858 85.2276 104.65 85.6438C104.441 86.0601 104.337 86.5063 104.337 86.9826V87.7476C104.337 88.4 104.451 88.9532 104.678 89.4069C104.909 89.8569 105.229 90.2 105.638 90.4363C106.047 90.6688 106.522 90.785 107.064 90.785C107.416 90.785 107.734 90.7363 108.018 90.6388C108.306 90.5375 108.554 90.3875 108.762 90.1888C108.97 89.9863 109.131 89.735 109.245 89.435L110.54 89.795C110.404 90.23 110.175 90.6125 109.853 90.9425C109.531 91.2688 109.133 91.5238 108.66 91.7075C108.186 91.8875 107.654 91.9775 107.064 91.9775ZM106.246 81.9876L107.632 79.3777H109.199L107.427 81.9876H106.246Z" fill="#A09E9E"/>
<path d="M116.51 83.1576V84.2826H111.988V83.1576H116.51ZM113.306 81.0876H114.647V89.3225C114.647 89.6975 114.701 89.9788 114.811 90.1663C114.925 90.35 115.069 90.4738 115.243 90.5375C115.421 90.5975 115.608 90.6275 115.805 90.6275C115.953 90.6275 116.074 90.62 116.169 90.605C116.263 90.5863 116.339 90.5713 116.396 90.56L116.669 91.7525C116.578 91.7863 116.451 91.82 116.288 91.8538C116.125 91.8913 115.919 91.91 115.669 91.91C115.29 91.91 114.919 91.8294 114.556 91.6681C114.196 91.5069 113.897 91.2613 113.658 90.9313C113.423 90.6013 113.306 90.185 113.306 89.6825V81.0876Z" fill="#A09E9E"/>
<path d="M118.526 91.7975V83.1576H119.867V91.7975H118.526ZM119.208 81.7176C118.946 81.7176 118.721 81.6295 118.532 81.4533C118.346 81.277 118.253 81.0651 118.253 80.8176C118.253 80.5701 118.346 80.3583 118.532 80.182C118.721 80.0058 118.946 79.9176 119.208 79.9176C119.469 79.9176 119.692 80.0058 119.878 80.182C120.067 80.3583 120.162 80.5701 120.162 80.8176C120.162 81.0651 120.067 81.277 119.878 81.4533C119.692 81.6295 119.469 81.7176 119.208 81.7176Z" fill="#A09E9E"/>
<path d="M125.866 91.9775C125.048 91.9775 124.344 91.7863 123.753 91.4038C123.162 91.0213 122.708 90.4944 122.39 89.8232C122.072 89.1519 121.913 88.385 121.913 87.5226C121.913 86.6451 122.076 85.8707 122.401 85.1995C122.731 84.5245 123.189 83.9976 123.776 83.6189C124.367 83.2364 125.056 83.0451 125.843 83.0451C126.457 83.0451 127.01 83.1576 127.502 83.3826C127.994 83.6076 128.397 83.9226 128.712 84.3276C129.026 84.7326 129.221 85.2051 129.297 85.7451H127.956C127.854 85.3513 127.627 85.0026 127.275 84.6988C126.926 84.3913 126.457 84.2376 125.866 84.2376C125.343 84.2376 124.885 84.3726 124.491 84.6426C124.101 84.9088 123.797 85.2857 123.577 85.7732C123.361 86.2569 123.253 86.8251 123.253 87.4776C123.253 88.145 123.359 88.7263 123.571 89.2213C123.787 89.7163 124.09 90.1006 124.48 90.3744C124.874 90.6481 125.336 90.785 125.866 90.785C126.214 90.785 126.531 90.725 126.815 90.605C127.099 90.485 127.339 90.3125 127.536 90.0875C127.733 89.8625 127.873 89.5925 127.956 89.2775H129.297C129.221 89.7875 129.034 90.2469 128.734 90.6556C128.439 91.0606 128.047 91.3831 127.559 91.6231C127.074 91.8594 126.51 91.9775 125.866 91.9775Z" fill="#A09E9E"/>
<path d="M133.824 92C133.271 92 132.769 91.8969 132.319 91.6906C131.868 91.4806 131.51 91.1788 131.245 90.785C130.98 90.3875 130.847 89.9075 130.847 89.345C130.847 88.85 130.946 88.4488 131.143 88.1413C131.34 87.8301 131.603 87.5863 131.932 87.4101C132.262 87.2338 132.625 87.1026 133.023 87.0163C133.424 86.9263 133.828 86.8551 134.233 86.8026C134.763 86.7351 135.193 86.6844 135.522 86.6507C135.855 86.6132 136.098 86.5513 136.249 86.4651C136.404 86.3788 136.482 86.2288 136.482 86.0151V85.9701C136.482 85.4151 136.329 84.9838 136.022 84.6763C135.719 84.3688 135.259 84.2151 134.642 84.2151C134.002 84.2151 133.5 84.3538 133.136 84.6313C132.773 84.9088 132.517 85.2051 132.37 85.5201L131.097 85.0701C131.325 84.5451 131.627 84.1363 132.006 83.8438C132.389 83.5476 132.805 83.3414 133.256 83.2251C133.71 83.1051 134.157 83.0451 134.596 83.0451C134.876 83.0451 135.198 83.0789 135.562 83.1464C135.929 83.2101 136.283 83.3432 136.624 83.5457C136.969 83.7482 137.254 84.0538 137.482 84.4626C137.709 84.8713 137.822 85.4188 137.822 86.1051V91.7975H136.482V90.6275H136.414C136.323 90.815 136.172 91.0156 135.959 91.2294C135.747 91.4431 135.465 91.625 135.113 91.775C134.761 91.925 134.331 92 133.824 92ZM134.028 90.8075C134.558 90.8075 135.005 90.7044 135.369 90.4981C135.736 90.2919 136.012 90.0257 136.198 89.6994C136.387 89.3732 136.482 89.03 136.482 88.67V87.4551C136.425 87.5226 136.3 87.5844 136.107 87.6407C135.918 87.6932 135.698 87.7401 135.448 87.7813C135.202 87.8188 134.962 87.8526 134.727 87.8826C134.496 87.9088 134.308 87.9313 134.165 87.9501C133.816 87.995 133.491 88.0682 133.188 88.1694C132.888 88.2669 132.646 88.415 132.461 88.6138C132.279 88.8088 132.188 89.075 132.188 89.4125C132.188 89.8738 132.36 90.2225 132.705 90.4588C133.053 90.6913 133.494 90.8075 134.028 90.8075Z" fill="#A09E9E"/>
</svg>
