<svg width="575" height="190" viewBox="0 0 575 190" fill="none" xmlns="http://www.w3.org/2000/svg">
<path fill-rule="evenodd" clip-rule="evenodd" d="M1.88599 186.599H42.6517V75.1028H1.88599V186.599Z" fill="#222222"/>
<path d="M94.443 116.272H93.6451V36.6108H52.8793V187.178H93.6451V154.909L99.3029 147.601L123.023 187.178H169.881L129.623 123.29L167.27 75.6816H122.297L94.443 116.272Z" fill="#222222"/>
<path d="M169.446 187.178H210.212V124.737C210.212 114.029 216.305 106.359 226.533 106.359C237.268 106.359 242.636 113.378 242.636 124.81V187.178H283.402V115.765C283.402 89.067 269.547 73.4387 244.522 73.4387C227.403 73.4387 215.725 81.904 209.994 97.46H209.197V75.6817H169.446V187.178Z" fill="#222222"/>
<path d="M344.986 190C381.544 190 403.74 169.018 403.74 131.321C403.74 94.4935 381.036 72.8599 344.986 72.8599C309.152 72.8599 286.231 94.7106 286.231 131.321C286.303 168.945 308.572 190 344.986 190ZM344.986 160.769C334.178 160.769 327.649 150.35 327.649 131.394C327.649 112.944 334.323 102.018 344.986 102.018C355.648 102.018 362.322 112.944 362.322 131.394C362.322 150.35 355.721 160.769 344.986 160.769Z" fill="#222222"/>
<path d="M575 75.6816H534.669L522.556 151.436H521.758L506.38 75.6816H467.5L452.485 151.436H451.687L439.574 75.6816H398.228L426.662 187.106H470.184L485.852 114.897H486.577L502.463 187.106H546.711L575 75.6816Z" fill="#222222"/>
<path fill-rule="evenodd" clip-rule="evenodd" d="M22.2688 0C34.6001 0 44.5377 9.91242 44.5377 22.2125C44.5377 34.5126 34.5276 44.425 22.2688 44.425C10.0101 44.425 0 34.4402 0 22.2125C0 9.91242 9.93756 0 22.2688 0ZM22.2688 19.5354C34.6001 19.5354 44.5377 29.4478 44.5377 41.7479C44.5377 54.048 34.5276 63.9604 22.2688 63.9604C10.0101 63.9604 0 53.9756 0 41.7479C0 29.4478 9.93756 19.5354 22.2688 19.5354Z" fill="#222222"/>
</svg>
