<svg width="123" height="73" viewBox="0 0 123 73" fill="none" xmlns="http://www.w3.org/2000/svg">
<path d="M45.8522 50.164C45.8443 54.1553 44.7973 58.0751 42.8151 61.5342C40.8329 64.9933 37.9845 67.8713 34.5527 69.8826C31.1209 71.8938 27.225 72.9683 23.252 72.9993C19.2789 73.0303 15.367 72.0168 11.9044 70.0593V56.0802C12.9941 58.0455 14.5812 59.6869 16.5051 60.8383C18.4291 61.9896 20.6216 62.6101 22.8608 62.637C25.1001 62.6638 27.3067 62.0961 29.2575 60.9912C31.2082 59.8863 32.8339 58.2834 33.97 56.3448C35.106 54.4061 35.7123 52.2004 35.7274 49.9508C35.7425 47.7011 35.1658 45.4874 34.0558 43.5336C32.9458 41.5797 31.3418 39.955 29.406 38.8238C27.4703 37.6927 25.2714 37.0951 23.032 37.0917V27.3229H23.0996C29.1315 27.3221 34.9169 29.7278 39.1835 34.0111C43.4502 38.2944 45.8489 44.1045 45.8522 50.164Z" fill="#A09E9E"/>
<path d="M21.0853 27.2489V37.0577C18.0206 37.4557 15.2049 38.961 13.1644 41.2923C11.124 43.6237 9.99824 46.6216 9.99763 49.726C9.99763 49.8802 9.99763 50.0344 9.99763 50.1856H9.9485V72.7922H0V26.2063H9.89016V31.1786L9.93315 31.1508C13.2413 28.8817 17.0897 27.5352 21.0853 27.2489Z" fill="#382B57"/>
<path d="M9.91782 0H0.0276617V24.0965H9.91782V0Z" fill="#A09E9E"/>
<path d="M57.5382 39.5501V31.1406H60.9281C61.5509 31.1406 62.0704 31.2323 62.4866 31.4157C62.9027 31.5991 63.2155 31.8537 63.425 32.1794C63.6345 32.5025 63.7392 32.8748 63.7392 33.2963C63.7392 33.6248 63.673 33.9136 63.5408 34.1627C63.4085 34.4091 63.2266 34.6117 62.9951 34.7705C62.7663 34.9265 62.5045 35.0374 62.2096 35.1031V35.1852C62.5321 35.1989 62.8338 35.2892 63.1149 35.4562C63.3988 35.6232 63.6289 35.8572 63.8053 36.1584C63.9817 36.4567 64.0699 36.8126 64.0699 37.226C64.0699 37.6722 63.9583 38.0705 63.735 38.4209C63.5146 38.7685 63.188 39.0436 62.7553 39.2462C62.3226 39.4488 61.7893 39.5501 61.1554 39.5501H57.5382ZM59.3282 38.0965H60.7875C61.2863 38.0965 61.6501 38.002 61.8789 37.8132C62.1076 37.6215 62.222 37.3669 62.222 37.0494C62.222 36.8167 62.1655 36.6114 62.0525 36.4335C61.9395 36.2555 61.7783 36.1159 61.5688 36.0146C61.3621 35.9134 61.1155 35.8627 60.8289 35.8627H59.3282V38.0965ZM59.3282 34.6596H60.6552C60.9005 34.6596 61.1182 34.6172 61.3084 34.5323C61.5013 34.4447 61.6529 34.3215 61.7631 34.1627C61.8761 34.004 61.9326 33.8137 61.9326 33.592C61.9326 33.2881 61.8238 33.0431 61.606 32.857C61.3911 32.6708 61.0852 32.5778 60.6883 32.5778H59.3282V34.6596Z" fill="#A09E9E"/>
<path d="M65.2016 39.5501V33.243H66.9089V34.3434H66.9751C67.0908 33.952 67.2851 33.6563 67.558 33.4565C67.8308 33.2539 68.145 33.1526 68.5005 33.1526C68.5887 33.1526 68.6838 33.1581 68.7858 33.169C68.8877 33.18 68.9773 33.195 69.0545 33.2142V34.7664C68.9718 34.7417 68.8574 34.7198 68.7113 34.7007C68.5653 34.6815 68.4316 34.6719 68.3103 34.6719C68.0513 34.6719 67.8198 34.728 67.6158 34.8403C67.4146 34.9498 67.2548 35.1031 67.1363 35.3002C67.0205 35.4973 66.9627 35.7245 66.9627 35.9818V39.5501H65.2016Z" fill="#A09E9E"/>
<path d="M74.037 36.8646V33.243H75.798V39.5501H74.1072V38.4044H74.0411C73.8978 38.774 73.6594 39.071 73.3259 39.2955C72.9952 39.52 72.5914 39.6322 72.1146 39.6322C71.6902 39.6322 71.3168 39.5364 70.9943 39.3448C70.6719 39.1531 70.4197 38.8808 70.2378 38.5276C70.0587 38.1745 69.9677 37.7516 69.965 37.2588V33.243H71.7261V36.9467C71.7288 37.319 71.8294 37.6133 72.0278 37.8296C72.2263 38.0458 72.4922 38.154 72.8257 38.154C73.0379 38.154 73.2363 38.1061 73.421 38.0103C73.6056 37.9117 73.7545 37.7666 73.8675 37.575C73.9832 37.3834 74.0397 37.1466 74.037 36.8646Z" fill="#A09E9E"/>
<path d="M78.9678 35.9038V39.5501H77.2067V33.243H78.8851V34.3557H78.9595C79.1001 33.9889 79.3357 33.6987 79.6664 33.4852C79.9971 33.269 80.3981 33.1608 80.8694 33.1608C81.3104 33.1608 81.6948 33.2566 82.0228 33.4483C82.3508 33.6399 82.6057 33.9136 82.7876 34.2695C82.9695 34.6226 83.0604 35.0442 83.0604 35.5342V39.5501H81.2993V35.8463C81.3021 35.4603 81.2029 35.1592 81.0017 34.9429C80.8005 34.7239 80.5235 34.6144 80.1708 34.6144C79.9337 34.6144 79.7243 34.6651 79.5424 34.7664C79.3633 34.8676 79.2227 35.0155 79.1207 35.2098C79.0215 35.4014 78.9705 35.6328 78.9678 35.9038Z" fill="#A09E9E"/>
<path d="M87.3174 39.6733C86.6752 39.6733 86.1199 39.5378 85.6514 39.2667C85.1856 38.993 84.826 38.6125 84.5724 38.1252C84.3189 37.6352 84.1921 37.0672 84.1921 36.4212C84.1921 35.7696 84.3189 35.2002 84.5724 34.713C84.826 34.223 85.1856 33.8425 85.6514 33.5715C86.1199 33.2977 86.6752 33.1608 87.3174 33.1608C87.9595 33.1608 88.5135 33.2977 88.9793 33.5715C89.4478 33.8425 89.8088 34.223 90.0624 34.713C90.3159 35.2002 90.4427 35.7696 90.4427 36.4212C90.4427 37.0672 90.3159 37.6352 90.0624 38.1252C89.8088 38.6125 89.4478 38.993 88.9793 39.2667C88.5135 39.5378 87.9595 39.6733 87.3174 39.6733ZM87.3257 38.3182C87.6178 38.3182 87.8617 38.2361 88.0574 38.0718C88.2531 37.9049 88.4005 37.6776 88.4997 37.3902C88.6017 37.1028 88.6527 36.7757 88.6527 36.4088C88.6527 36.042 88.6017 35.7149 88.4997 35.4275C88.4005 35.14 88.2531 34.9128 88.0574 34.7458C87.8617 34.5788 87.6178 34.4953 87.3257 34.4953C87.0308 34.4953 86.7827 34.5788 86.5815 34.7458C86.3831 34.9128 86.2329 35.14 86.1309 35.4275C86.0317 35.7149 85.9821 36.042 85.9821 36.4088C85.9821 36.7757 86.0317 37.1028 86.1309 37.3902C86.2329 37.6776 86.3831 37.9049 86.5815 38.0718C86.7827 38.2361 87.0308 38.3182 87.3257 38.3182Z" fill="#A09E9E"/>
<path d="M94.3152 39.5501V31.1406H97.6555C98.2949 31.1406 98.8405 31.2542 99.2925 31.4814C99.7473 31.7059 100.093 32.0248 100.33 32.4381C100.57 32.8488 100.69 33.3319 100.69 33.8876C100.69 34.4461 100.569 34.9265 100.326 35.3289C100.084 35.7286 99.7321 36.0352 99.2719 36.2487C98.8144 36.4622 98.2604 36.569 97.61 36.569H95.3735V35.14H97.3206C97.6624 35.14 97.9462 35.0935 98.1722 35.0004C98.3982 34.9073 98.5663 34.7677 98.6766 34.5816C98.7896 34.3954 98.8461 34.1641 98.8461 33.8876C98.8461 33.6084 98.7896 33.373 98.6766 33.1814C98.5663 32.9897 98.3968 32.8447 98.1681 32.7461C97.9421 32.6448 97.6568 32.5942 97.3124 32.5942H96.1052V39.5501H94.3152ZM98.8874 35.7231L100.992 39.5501H99.0156L96.9568 35.7231H98.8874Z" fill="#A09E9E"/>
<path d="M104.713 39.6733C104.06 39.6733 103.498 39.5419 103.027 39.2791C102.558 39.0135 102.197 38.6385 101.943 38.154C101.69 37.6667 101.563 37.0905 101.563 36.4253C101.563 35.7765 101.69 35.2071 101.943 34.7171C102.197 34.2271 102.554 33.8452 103.014 33.5715C103.477 33.2977 104.02 33.1608 104.643 33.1608C105.062 33.1608 105.452 33.2279 105.813 33.362C106.177 33.4934 106.494 33.6919 106.764 33.9574C107.037 34.223 107.249 34.5569 107.4 34.9593C107.552 35.359 107.628 35.8271 107.628 36.3637V36.8441H102.266V35.7601H105.97C105.97 35.5082 105.915 35.2851 105.805 35.0907C105.694 34.8964 105.541 34.7445 105.346 34.635C105.153 34.5227 104.928 34.4666 104.672 34.4666C104.405 34.4666 104.168 34.5282 103.961 34.6514C103.757 34.7718 103.597 34.9347 103.481 35.14C103.366 35.3426 103.306 35.5684 103.304 35.8175V36.8482C103.304 37.1603 103.361 37.4299 103.477 37.6571C103.596 37.8843 103.762 38.0595 103.977 38.1827C104.192 38.3059 104.447 38.3675 104.742 38.3675C104.938 38.3675 105.117 38.3401 105.28 38.2854C105.442 38.2306 105.581 38.1485 105.697 38.039C105.813 37.9295 105.901 37.7954 105.962 37.6366L107.59 37.7433C107.508 38.1321 107.338 38.4715 107.082 38.7617C106.828 39.0491 106.5 39.2736 106.098 39.4351C105.698 39.5939 105.237 39.6733 104.713 39.6733Z" fill="#A09E9E"/>
<path d="M108.777 39.5501V33.243H110.538V39.5501H108.777ZM109.662 32.4299C109.4 32.4299 109.175 32.3437 108.988 32.1712C108.803 31.996 108.711 31.7866 108.711 31.543C108.711 31.3021 108.803 31.0954 108.988 30.923C109.175 30.7478 109.4 30.6602 109.662 30.6602C109.923 30.6602 110.147 30.7478 110.331 30.923C110.519 31.0954 110.612 31.3021 110.612 31.543C110.612 31.7866 110.519 31.996 110.331 32.1712C110.147 32.3437 109.923 32.4299 109.662 32.4299Z" fill="#A09E9E"/>
<path d="M117.232 35.0415L115.62 35.14C115.592 35.0031 115.533 34.88 115.442 34.7705C115.351 34.6582 115.231 34.5693 115.082 34.5036C114.936 34.4351 114.761 34.4009 114.557 34.4009C114.284 34.4009 114.054 34.4584 113.867 34.5734C113.68 34.6856 113.586 34.8362 113.586 35.025C113.586 35.1756 113.646 35.3029 113.768 35.4069C113.889 35.5109 114.097 35.5944 114.392 35.6574L115.541 35.8873C116.159 36.0133 116.619 36.2158 116.922 36.4951C117.225 36.7743 117.377 37.1411 117.377 37.5955C117.377 38.0089 117.254 38.3716 117.009 38.6837C116.766 38.9957 116.433 39.2394 116.008 39.4146C115.587 39.587 115.1 39.6733 114.549 39.6733C113.708 39.6733 113.039 39.4994 112.54 39.1518C112.044 38.8014 111.753 38.3251 111.668 37.7228L113.4 37.6325C113.452 37.8871 113.579 38.0814 113.78 38.2156C113.981 38.347 114.239 38.4127 114.553 38.4127C114.862 38.4127 115.11 38.3538 115.297 38.2361C115.487 38.1156 115.584 37.961 115.587 37.7721C115.584 37.6133 115.516 37.4833 115.384 37.382C115.252 37.278 115.048 37.1986 114.772 37.1438L113.673 36.9262C113.053 36.803 112.591 36.5895 112.288 36.2856C111.987 35.9818 111.837 35.5944 111.837 35.1236C111.837 34.7184 111.947 34.3694 112.168 34.0765C112.391 33.7836 112.704 33.5578 113.106 33.399C113.511 33.2402 113.985 33.1608 114.528 33.1608C115.33 33.1608 115.961 33.3292 116.422 33.6659C116.885 34.0026 117.155 34.4611 117.232 35.0415Z" fill="#A09E9E"/>
<path d="M64.9711 49.0765C64.9711 49.9634 64.8099 50.7299 64.4874 51.3759C64.165 52.022 63.7226 52.5202 63.1604 52.8706C62.5982 53.221 61.9561 53.3962 61.234 53.3962C60.5119 53.3962 59.8698 53.221 59.3075 52.8706C58.7453 52.5202 58.303 52.022 57.9805 51.3759C57.6581 50.7299 57.4969 49.9634 57.4969 49.0765C57.4969 48.1895 57.6581 47.423 57.9805 46.777C58.303 46.1309 58.7453 45.6327 59.3075 45.2823C59.8698 44.9319 60.5119 44.7567 61.234 44.7567C61.9561 44.7567 62.5982 44.9319 63.1604 45.2823C63.7226 45.6327 64.165 46.1309 64.4874 46.777C64.8099 47.423 64.9711 48.1895 64.9711 49.0765ZM63.979 49.0765C63.979 48.3483 63.8563 47.7337 63.611 47.2328C63.3685 46.7318 63.0392 46.3527 62.623 46.0954C62.2096 45.838 61.7466 45.7094 61.234 45.7094C60.7214 45.7094 60.257 45.838 59.8408 46.0954C59.4274 46.3527 59.0981 46.7318 58.8528 47.2328C58.6103 47.7337 58.489 48.3483 58.489 49.0765C58.489 49.8046 58.6103 50.4192 58.8528 50.9201C59.0981 51.4211 59.4274 51.8002 59.8408 52.0576C60.257 52.3149 60.7214 52.4435 61.234 52.4435C61.7466 52.4435 62.2096 52.3149 62.623 52.0576C63.0392 51.8002 63.3685 51.4211 63.611 50.9201C63.8563 50.4192 63.979 49.8046 63.979 49.0765Z" fill="#A09E9E"/>
<path d="M68.9604 53.4126C68.4313 53.4126 67.9641 53.2798 67.559 53.0143C67.1539 52.746 66.8369 52.3683 66.6082 51.881C66.3794 51.391 66.265 50.812 66.265 50.1441C66.265 49.4816 66.3794 48.9067 66.6082 48.4195C66.8369 47.9322 67.1552 47.5558 67.5631 47.2903C67.971 47.0247 68.4423 46.892 68.9769 46.892C69.3903 46.892 69.7169 46.9604 69.9567 47.0973C70.1992 47.2314 70.3839 47.3847 70.5107 47.5572C70.6402 47.7269 70.7408 47.8665 70.8124 47.976H70.8951V44.8717H71.8707V53.2812H70.9282V52.3121H70.8124C70.7408 52.4271 70.6388 52.5722 70.5065 52.7474C70.3742 52.9199 70.1854 53.0745 69.9402 53.2114C69.6949 53.3455 69.3683 53.4126 68.9604 53.4126ZM69.0927 52.5421C69.4841 52.5421 69.8148 52.4408 70.0849 52.2382C70.3549 52.0329 70.5603 51.7496 70.7008 51.3882C70.8414 51.0242 70.9117 50.604 70.9117 50.1276C70.9117 49.6568 70.8428 49.2448 70.705 48.8917C70.5672 48.5358 70.3632 48.2593 70.0931 48.0622C69.823 47.8624 69.4896 47.7625 69.0927 47.7625C68.6793 47.7625 68.3348 47.8679 68.0592 48.0786C67.7864 48.2867 67.581 48.57 67.4432 48.9286C67.3082 49.2845 67.2407 49.6842 67.2407 50.1276C67.2407 50.5766 67.3096 50.9845 67.4474 51.3513C67.5879 51.7154 67.7946 52.0055 68.0675 52.2218C68.3431 52.4353 68.6848 52.5421 69.0927 52.5421Z" fill="#A09E9E"/>
<path d="M76.3727 53.4126C75.7994 53.4126 75.2964 53.2771 74.8637 53.0061C74.4338 52.7351 74.0976 52.3559 73.8551 51.8687C73.6153 51.3814 73.4954 50.812 73.4954 50.1605C73.4954 49.5035 73.6153 48.93 73.8551 48.44C74.0976 47.95 74.4338 47.5695 74.8637 47.2985C75.2964 47.0275 75.7994 46.892 76.3727 46.892C76.9459 46.892 77.4475 47.0275 77.8774 47.2985C78.3101 47.5695 78.6464 47.95 78.8861 48.44C79.1287 48.93 79.2499 49.5035 79.2499 50.1605C79.2499 50.812 79.1287 51.3814 78.8861 51.8687C78.6464 52.3559 78.3101 52.7351 77.8774 53.0061C77.4475 53.2771 76.9459 53.4126 76.3727 53.4126ZM76.3727 52.5421C76.8081 52.5421 77.1664 52.4312 77.4475 52.2095C77.7286 51.9878 77.9367 51.6962 78.0717 51.3349C78.2068 50.9735 78.2743 50.5821 78.2743 50.1605C78.2743 49.7389 78.2068 49.3461 78.0717 48.982C77.9367 48.6179 77.7286 48.3237 77.4475 48.0992C77.1664 47.8747 76.8081 47.7625 76.3727 47.7625C75.9372 47.7625 75.5789 47.8747 75.2978 48.0992C75.0167 48.3237 74.8086 48.6179 74.6736 48.982C74.5385 49.3461 74.471 49.7389 74.471 50.1605C74.471 50.5821 74.5385 50.9735 74.6736 51.3349C74.8086 51.6962 75.0167 51.9878 75.2978 52.2095C75.5789 52.4312 75.9372 52.5421 76.3727 52.5421Z" fill="#A09E9E"/>
<path d="M81.7148 49.4871V53.2812H80.7392V46.9741H81.6817V47.9596H81.7644C81.9132 47.6393 82.1392 47.382 82.4424 47.1876C82.7455 46.9905 83.1369 46.892 83.6164 46.892C84.0464 46.892 84.4226 46.9796 84.745 47.1548C85.0675 47.3272 85.3183 47.59 85.4974 47.9431C85.6765 48.2935 85.7661 48.737 85.7661 49.2736V53.2812H84.7905V49.3393C84.7905 48.8438 84.661 48.4578 84.4019 48.1813C84.1428 47.9021 83.7873 47.7625 83.3353 47.7625C83.0239 47.7625 82.7455 47.8295 82.5003 47.9637C82.2577 48.0978 82.0662 48.2935 81.9256 48.5509C81.7851 48.8082 81.7148 49.1203 81.7148 49.4871Z" fill="#A09E9E"/>
<path d="M90.3104 46.9741V47.7953H87.0197V46.9741H90.3104ZM87.9788 45.463H88.9545V51.4745C88.9545 51.7482 88.9944 51.9535 89.0743 52.0904C89.157 52.2245 89.2617 52.3149 89.3885 52.3614C89.5181 52.4052 89.6545 52.4271 89.7978 52.4271C89.9053 52.4271 89.9935 52.4216 90.0624 52.4107C90.1313 52.397 90.1864 52.3861 90.2277 52.3778L90.4262 53.2484C90.36 53.273 90.2677 53.2976 90.1492 53.3223C90.0307 53.3496 89.8805 53.3633 89.6986 53.3633C89.423 53.3633 89.1529 53.3045 88.8883 53.1868C88.6265 53.0691 88.4088 52.8897 88.2351 52.6488C88.0643 52.408 87.9788 52.1041 87.9788 51.7373V45.463Z" fill="#A09E9E"/>
<path d="M94.2894 53.4126C93.7161 53.4126 93.2132 53.2771 92.7805 53.0061C92.3505 52.7351 92.0143 52.3559 91.7718 51.8687C91.532 51.3814 91.4121 50.812 91.4121 50.1605C91.4121 49.5035 91.532 48.93 91.7718 48.44C92.0143 47.95 92.3505 47.5695 92.7805 47.2985C93.2132 47.0275 93.7161 46.892 94.2894 46.892C94.8626 46.892 95.3642 47.0275 95.7941 47.2985C96.2268 47.5695 96.5631 47.95 96.8028 48.44C97.0454 48.93 97.1666 49.5035 97.1666 50.1605C97.1666 50.812 97.0454 51.3814 96.8028 51.8687C96.5631 52.3559 96.2268 52.7351 95.7941 53.0061C95.3642 53.2771 94.8626 53.4126 94.2894 53.4126ZM94.2894 52.5421C94.7248 52.5421 95.0831 52.4312 95.3642 52.2095C95.6453 51.9878 95.8534 51.6962 95.9884 51.3349C96.1235 50.9735 96.191 50.5821 96.191 50.1605C96.191 49.7389 96.1235 49.3461 95.9884 48.982C95.8534 48.6179 95.6453 48.3237 95.3642 48.0992C95.0831 47.8747 94.7248 47.7625 94.2894 47.7625C93.8539 47.7625 93.4956 47.8747 93.2145 48.0992C92.9334 48.3237 92.7253 48.6179 92.5903 48.982C92.4553 49.3461 92.3877 49.7389 92.3877 50.1605C92.3877 50.5821 92.4553 50.9735 92.5903 51.3349C92.7253 51.6962 92.9334 51.9878 93.2145 52.2095C93.4956 52.4312 93.8539 52.5421 94.2894 52.5421Z" fill="#A09E9E"/>
<path d="M99.6315 44.8717V53.2812H98.6559V44.8717H99.6315Z" fill="#A09E9E"/>
<path d="M103.998 53.4126C103.425 53.4126 102.922 53.2771 102.489 53.0061C102.059 52.7351 101.723 52.3559 101.48 51.8687C101.241 51.3814 101.121 50.812 101.121 50.1605C101.121 49.5035 101.241 48.93 101.48 48.44C101.723 47.95 102.059 47.5695 102.489 47.2985C102.922 47.0275 103.425 46.892 103.998 46.892C104.571 46.892 105.073 47.0275 105.503 47.2985C105.936 47.5695 106.272 47.95 106.512 48.44C106.754 48.93 106.875 49.5035 106.875 50.1605C106.875 50.812 106.754 51.3814 106.512 51.8687C106.272 52.3559 105.936 52.7351 105.503 53.0061C105.073 53.2771 104.571 53.4126 103.998 53.4126ZM103.998 52.5421C104.433 52.5421 104.792 52.4312 105.073 52.2095C105.354 51.9878 105.562 51.6962 105.697 51.3349C105.832 50.9735 105.9 50.5821 105.9 50.1605C105.9 49.7389 105.832 49.3461 105.697 48.982C105.562 48.6179 105.354 48.3237 105.073 48.0992C104.792 47.8747 104.433 47.7625 103.998 47.7625C103.563 47.7625 103.204 47.8747 102.923 48.0992C102.642 48.3237 102.434 48.6179 102.299 48.982C102.164 49.3461 102.096 49.7389 102.096 50.1605C102.096 50.5821 102.164 50.9735 102.299 51.3349C102.434 51.6962 102.642 51.9878 102.923 52.2095C103.204 52.4312 103.563 52.5421 103.998 52.5421Z" fill="#A09E9E"/>
<path d="M110.928 55.7778C110.456 55.7778 110.051 55.7176 109.712 55.5971C109.373 55.4794 109.091 55.3234 108.865 55.129C108.642 54.9374 108.464 54.7321 108.332 54.5131L109.109 53.971C109.197 54.086 109.309 54.2174 109.444 54.3652C109.579 54.5158 109.763 54.6458 109.997 54.7553C110.235 54.8676 110.545 54.9237 110.928 54.9237C111.44 54.9237 111.863 54.8005 112.197 54.5541C112.53 54.3078 112.697 53.9218 112.697 53.3962V52.115H112.614C112.543 52.23 112.441 52.3724 112.308 52.5421C112.179 52.7091 111.991 52.8583 111.746 52.9897C111.504 53.1183 111.176 53.1827 110.762 53.1827C110.25 53.1827 109.789 53.0622 109.382 52.8213C108.976 52.5804 108.655 52.23 108.418 51.7701C108.184 51.3102 108.067 50.7518 108.067 50.0948C108.067 49.4488 108.181 48.8862 108.41 48.4071C108.639 47.9254 108.957 47.5531 109.365 47.2903C109.773 47.0247 110.244 46.892 110.779 46.892C111.192 46.892 111.52 46.9604 111.763 47.0973C112.008 47.2314 112.195 47.3847 112.325 47.5572C112.457 47.7269 112.559 47.8665 112.631 47.976H112.73V46.9741H113.673V53.4619C113.673 54.0039 113.549 54.4446 113.301 54.7841C113.055 55.1263 112.725 55.3767 112.308 55.5355C111.895 55.697 111.435 55.7778 110.928 55.7778ZM110.895 52.3121C111.286 52.3121 111.617 52.2232 111.887 52.0452C112.157 51.8673 112.362 51.6114 112.503 51.2774C112.643 50.9434 112.714 50.5437 112.714 50.0784C112.714 49.6239 112.645 49.2229 112.507 48.8753C112.369 48.5276 112.165 48.2552 111.895 48.0581C111.625 47.861 111.291 47.7625 110.895 47.7625C110.481 47.7625 110.137 47.8665 109.861 48.0745C109.588 48.2826 109.383 48.5618 109.245 48.9122C109.11 49.2626 109.043 49.6513 109.043 50.0784C109.043 50.5164 109.111 50.9037 109.249 51.2404C109.39 51.5744 109.597 51.8372 109.869 52.0288C110.145 52.2177 110.487 52.3121 110.895 52.3121Z" fill="#A09E9E"/>
<path d="M115.458 53.2812V46.9741H116.434V53.2812H115.458ZM115.955 45.9229C115.764 45.9229 115.6 45.8586 115.463 45.7299C115.328 45.6012 115.26 45.4466 115.26 45.2659C115.26 45.0852 115.328 44.9306 115.463 44.8019C115.6 44.6732 115.764 44.6089 115.955 44.6089C116.145 44.6089 116.307 44.6732 116.442 44.8019C116.58 44.9306 116.649 45.0852 116.649 45.2659C116.649 45.4466 116.58 45.6012 116.442 45.7299C116.307 45.8586 116.145 45.9229 115.955 45.9229Z" fill="#A09E9E"/>
<path d="M120.09 53.429C119.687 53.429 119.322 53.3537 118.994 53.2032C118.666 53.0499 118.406 52.8295 118.213 52.5421C118.02 52.2519 117.923 51.9015 117.923 51.4909C117.923 51.1296 117.995 50.8366 118.138 50.6122C118.282 50.385 118.473 50.207 118.713 50.0784C118.953 49.9497 119.217 49.8539 119.507 49.7909C119.799 49.7252 120.092 49.6732 120.387 49.6349C120.773 49.5856 121.086 49.5487 121.326 49.524C121.568 49.4967 121.745 49.4515 121.855 49.3885C121.968 49.3256 122.024 49.2161 122.024 49.06V49.0272C122.024 48.622 121.913 48.3072 121.689 48.0828C121.469 47.8583 121.134 47.746 120.685 47.746C120.219 47.746 119.854 47.8473 119.589 48.0499C119.325 48.2525 119.139 48.4687 119.031 48.6987L118.105 48.3702C118.271 47.9869 118.491 47.6886 118.767 47.475C119.045 47.2588 119.348 47.1082 119.676 47.0234C120.007 46.9358 120.332 46.892 120.652 46.892C120.856 46.892 121.09 46.9166 121.355 46.9659C121.622 47.0124 121.88 47.1096 122.128 47.2574C122.378 47.4052 122.587 47.6283 122.752 47.9267C122.917 48.2251 123 48.6248 123 49.1257V53.2812H122.024V52.4271H121.975C121.909 52.564 121.798 52.7104 121.644 52.8665C121.49 53.0225 121.284 53.1553 121.028 53.2648C120.772 53.3743 120.459 53.429 120.09 53.429ZM120.238 52.5585C120.624 52.5585 120.949 52.4832 121.214 52.3327C121.481 52.1821 121.683 51.9878 121.818 51.7496C121.955 51.5114 122.024 51.261 122.024 50.9982V50.1112C121.983 50.1605 121.892 50.2057 121.751 50.2467C121.614 50.285 121.454 50.3193 121.272 50.3494C121.093 50.3768 120.918 50.4014 120.747 50.4233C120.579 50.4425 120.442 50.4589 120.338 50.4726C120.084 50.5054 119.847 50.5588 119.627 50.6327C119.409 50.7039 119.232 50.812 119.097 50.9571C118.965 51.0994 118.899 51.2938 118.899 51.5402C118.899 51.8769 119.024 52.1315 119.275 52.3039C119.529 52.4737 119.85 52.5585 120.238 52.5585Z" fill="#A09E9E"/>
<path d="M57.8276 67.0123V58.6028H62.9372V59.5062H58.8528V62.3477H62.6726V63.2511H58.8528V66.109H63.0033V67.0123H57.8276Z" fill="#A09E9E"/>
<path d="M69.1506 62.1177L68.2742 62.3641C68.219 62.219 68.1377 62.0781 68.0303 61.9412C67.9255 61.8016 67.7822 61.6866 67.6003 61.5963C67.4184 61.5059 67.1856 61.4608 66.9017 61.4608C66.5131 61.4608 66.1893 61.5497 65.9302 61.7277C65.6739 61.9029 65.5457 62.126 65.5457 62.397C65.5457 62.6379 65.6339 62.8281 65.8103 62.9677C65.9867 63.1073 66.2623 63.2237 66.6371 63.3168L67.5797 63.5467C68.1474 63.6836 68.5704 63.893 68.8488 64.1749C69.1271 64.4542 69.2663 64.8141 69.2663 65.2549C69.2663 65.6162 69.1616 65.9392 68.9521 66.2239C68.7454 66.5086 68.4561 66.7331 68.084 66.8974C67.7119 67.0616 67.2793 67.1437 66.7859 67.1437C66.1383 67.1437 65.6022 67.0041 65.1778 66.7249C64.7534 66.4457 64.4847 66.0378 64.3717 65.5013L65.2977 65.2713C65.3859 65.6107 65.5526 65.8653 65.7979 66.0351C66.0459 66.2048 66.3698 66.2896 66.7694 66.2896C67.2241 66.2896 67.5852 66.1938 67.8525 66.0022C68.1226 65.8078 68.2576 65.5752 68.2576 65.3042C68.2576 65.0852 68.1805 64.9017 68.0261 64.7539C67.8718 64.6034 67.6348 64.4911 67.3151 64.4172L66.2568 64.1708C65.6753 64.034 65.2481 63.8218 64.9752 63.5344C64.7052 63.2442 64.5701 62.8815 64.5701 62.4462C64.5701 62.0904 64.6707 61.7756 64.8719 61.5018C65.0758 61.2281 65.3528 61.0132 65.7028 60.8571C66.0556 60.7011 66.4552 60.6231 66.9017 60.6231C67.5301 60.6231 68.0234 60.76 68.3817 61.0337C68.7427 61.3075 68.999 61.6688 69.1506 62.1177Z" fill="#A09E9E"/>
<path d="M73.4964 60.7052V61.5265H70.2058V60.7052H73.4964ZM71.1649 59.1941H72.1405V65.2056C72.1405 65.4794 72.1804 65.6847 72.2604 65.8215C72.343 65.9557 72.4478 66.046 72.5746 66.0925C72.7041 66.1363 72.8405 66.1582 72.9838 66.1582C73.0913 66.1582 73.1795 66.1528 73.2484 66.1418C73.3173 66.1281 73.3724 66.1172 73.4138 66.109L73.6122 66.9795C73.546 67.0041 73.4537 67.0288 73.3352 67.0534C73.2167 67.0808 73.0665 67.0945 72.8846 67.0945C72.609 67.0945 72.3389 67.0356 72.0743 66.9179C71.8125 66.8002 71.5948 66.6209 71.4212 66.38C71.2503 66.1391 71.1649 65.8352 71.1649 65.4684V59.1941Z" fill="#A09E9E"/>
<path d="M77.5581 67.1437C76.9462 67.1437 76.4185 67.0096 75.9748 66.7413C75.5338 66.4703 75.1934 66.0925 74.9537 65.608C74.7166 65.1207 74.5981 64.5541 74.5981 63.908C74.5981 63.262 74.7166 62.6926 74.9537 62.1999C75.1934 61.7044 75.5269 61.3184 75.9541 61.0419C76.384 60.7627 76.8856 60.6231 77.4589 60.6231C77.7896 60.6231 78.1162 60.6778 78.4386 60.7873C78.7611 60.8968 79.0546 61.0748 79.3192 61.3211C79.5837 61.5648 79.7946 61.8878 79.9517 62.2902C80.1087 62.6926 80.1873 63.1881 80.1873 63.7766V64.1873H75.2927V63.3496H79.1951C79.1951 62.9937 79.1235 62.6762 78.9802 62.397C78.8396 62.1177 78.6384 61.8974 78.3766 61.7359C78.1175 61.5744 77.8116 61.4936 77.4589 61.4936C77.0703 61.4936 76.734 61.5894 76.4502 61.781C76.1691 61.9699 75.9527 62.2163 75.8011 62.5202C75.6496 62.824 75.5738 63.1498 75.5738 63.4974V64.0559C75.5738 64.5322 75.6564 64.936 75.8218 65.2672C75.9899 65.5957 76.2228 65.8462 76.5204 66.0186C76.8181 66.1884 77.164 66.2732 77.5581 66.2732C77.8144 66.2732 78.0459 66.2376 78.2526 66.1665C78.462 66.0925 78.6426 65.983 78.7941 65.838C78.9457 65.6901 79.0628 65.5067 79.1455 65.2877L80.0881 65.5505C79.9889 65.8681 79.8221 66.1473 79.5879 66.3882C79.3536 66.6264 79.0642 66.8125 78.7197 66.9466C78.3752 67.078 77.988 67.1437 77.5581 67.1437ZM76.9628 59.8511L77.9715 57.9458H79.1125L77.8227 59.8511H76.9628Z" fill="#A09E9E"/>
<path d="M84.4329 60.7052V61.5265H81.1422V60.7052H84.4329ZM82.1013 59.1941H83.077V65.2056C83.077 65.4794 83.1169 65.6847 83.1968 65.8215C83.2795 65.9557 83.3842 66.046 83.511 66.0925C83.6406 66.1363 83.777 66.1582 83.9203 66.1582C84.0278 66.1582 84.116 66.1528 84.1849 66.1418C84.2538 66.1281 84.3089 66.1172 84.3502 66.109L84.5487 66.9795C84.4825 67.0041 84.3902 67.0288 84.2717 67.0534C84.1532 67.0808 84.003 67.0945 83.8211 67.0945C83.5455 67.0945 83.2754 67.0356 83.0108 66.9179C82.749 66.8002 82.5313 66.6209 82.3576 66.38C82.1868 66.1391 82.1013 65.8352 82.1013 65.4684V59.1941Z" fill="#A09E9E"/>
<path d="M85.9005 67.0123V60.7052H86.8761V67.0123H85.9005ZM86.3965 59.654C86.2064 59.654 86.0424 59.5897 85.9046 59.461C85.7696 59.3324 85.702 59.1777 85.702 58.997C85.702 58.8164 85.7696 58.6617 85.9046 58.533C86.0424 58.4044 86.2064 58.34 86.3965 58.34C86.5867 58.34 86.7493 58.4044 86.8844 58.533C87.0222 58.6617 87.0911 58.8164 87.0911 58.997C87.0911 59.1777 87.0222 59.3324 86.8844 59.461C86.7493 59.5897 86.5867 59.654 86.3965 59.654Z" fill="#A09E9E"/>
<path d="M91.2426 67.1437C90.6473 67.1437 90.1347 67.0041 89.7048 66.7249C89.2748 66.4457 88.9441 66.0611 88.7126 65.5711C88.4811 65.0811 88.3654 64.5212 88.3654 63.8916C88.3654 63.2511 88.4839 62.6858 88.7209 62.1958C88.9607 61.703 89.2941 61.3184 89.7213 61.0419C90.1512 60.7627 90.6528 60.6231 91.2261 60.6231C91.6726 60.6231 92.0749 60.7052 92.4332 60.8695C92.7915 61.0337 93.085 61.2637 93.3137 61.5593C93.5425 61.8549 93.6844 62.1999 93.7395 62.5941H92.7639C92.6895 62.3066 92.5242 62.052 92.2678 61.8303C92.0143 61.6058 91.6726 61.4936 91.2426 61.4936C90.8623 61.4936 90.5288 61.5921 90.2422 61.7892C89.9583 61.9836 89.7365 62.2587 89.5766 62.6146C89.4195 62.9677 89.341 63.3825 89.341 63.8588C89.341 64.346 89.4182 64.7703 89.5725 65.1317C89.7296 65.493 89.9501 65.7736 90.2339 65.9735C90.5205 66.1733 90.8568 66.2732 91.2426 66.2732C91.4962 66.2732 91.7263 66.2294 91.933 66.1418C92.1397 66.0542 92.3147 65.9283 92.458 65.764C92.6013 65.5998 92.7033 65.4027 92.7639 65.1728H93.7395C93.6844 65.5451 93.548 65.8804 93.3303 66.1788C93.1153 66.4744 92.8301 66.7098 92.4745 66.885C92.1218 67.0575 91.7111 67.1437 91.2426 67.1437Z" fill="#A09E9E"/>
<path d="M97.0343 67.1602C96.632 67.1602 96.2668 67.0849 95.9388 66.9343C95.6109 66.781 95.3504 66.5606 95.1575 66.2732C94.9646 65.983 94.8681 65.6326 94.8681 65.222C94.8681 64.8607 94.9398 64.5678 95.0831 64.3433C95.2264 64.1161 95.4179 63.9382 95.6577 63.8095C95.8975 63.6808 96.1621 63.585 96.4514 63.5221C96.7436 63.4564 97.0371 63.4044 97.332 63.366C97.7178 63.3168 98.0306 63.2798 98.2704 63.2552C98.5129 63.2278 98.6893 63.1826 98.7996 63.1197C98.9125 63.0567 98.969 62.9472 98.969 62.7912V62.7583C98.969 62.3532 98.8574 62.0384 98.6342 61.8139C98.4137 61.5894 98.0789 61.4772 97.6296 61.4772C97.1639 61.4772 96.7987 61.5785 96.5341 61.781C96.2696 61.9836 96.0835 62.1999 95.976 62.4298L95.05 62.1013C95.2154 61.7181 95.4359 61.4197 95.7115 61.2062C95.9898 60.9899 96.293 60.8393 96.6209 60.7545C96.9517 60.6669 97.2769 60.6231 97.5966 60.6231C97.8005 60.6231 98.0348 60.6477 98.2993 60.697C98.5667 60.7435 98.8244 60.8407 99.0724 60.9885C99.3232 61.1364 99.5313 61.3595 99.6966 61.6578C99.862 61.9562 99.9447 62.3559 99.9447 62.8569V67.0123H98.969V66.1582H98.9194C98.8533 66.2951 98.7431 66.4416 98.5887 66.5976C98.4344 66.7536 98.2291 66.8864 97.9728 66.9959C97.7164 67.1054 97.4036 67.1602 97.0343 67.1602ZM97.1832 66.2896C97.569 66.2896 97.8942 66.2144 98.1588 66.0638C98.4261 65.9132 98.6273 65.7189 98.7623 65.4807C98.9001 65.2426 98.969 64.9921 98.969 64.7293V63.8423C98.9277 63.8916 98.8368 63.9368 98.6962 63.9779C98.5584 64.0162 98.3986 64.0504 98.2167 64.0805C98.0375 64.1079 97.8625 64.1325 97.6916 64.1544C97.5235 64.1736 97.3871 64.19 97.2824 64.2037C97.0288 64.2365 96.7918 64.2899 96.5713 64.3638C96.3536 64.435 96.1772 64.5431 96.0422 64.6882C95.9099 64.8306 95.8438 65.0249 95.8438 65.2713C95.8438 65.608 95.9691 65.8626 96.2199 66.0351C96.4735 66.2048 96.7946 66.2896 97.1832 66.2896Z" fill="#A09E9E"/>
</svg>
