<svg width="40" height="64" viewBox="0 0 40 64" fill="none" xmlns="http://www.w3.org/2000/svg">
<path d="M40 43.9794C39.9932 47.4786 39.0798 50.9151 37.3506 53.9478C35.6214 56.9804 33.1365 59.5036 30.1427 61.2669C27.1489 63.0302 23.7502 63.9722 20.2843 63.9994C16.8184 64.0266 13.4057 63.138 10.3851 61.4219V49.1662C11.3357 50.8892 12.7202 52.3282 14.3986 53.3377C16.077 54.3471 17.9896 54.8911 19.9431 54.9146C21.8966 54.9381 23.8216 54.4404 25.5233 53.4717C27.2251 52.503 28.6432 51.0978 29.6343 49.3981C30.6254 47.6985 31.1543 45.7647 31.1675 43.7924C31.1806 41.8202 30.6776 39.8794 29.7092 38.1664C28.7409 36.4534 27.3416 35.029 25.6529 34.0373C23.9642 33.0456 22.046 32.5218 20.0924 32.5187V23.9543H20.1513C25.4134 23.9536 30.4604 26.0628 34.1825 29.8179C37.9046 33.5731 39.9972 38.667 40 43.9794Z" fill="white"/>
<path d="M18.3942 23.8894V32.489C15.7206 32.8379 13.2643 34.1576 11.4843 36.2015C9.7042 38.2454 8.72216 40.8737 8.72162 43.5954C8.72162 43.7306 8.72162 43.8658 8.72162 43.9983H8.67877V63.8178H0V22.9754H8.62787V27.3346L8.66537 27.3103C11.5513 25.3209 14.9085 24.1404 18.3942 23.8894Z" fill="white"/>
<path d="M8.652 0H0.0241312V21.1257H8.652V0Z" fill="white"/>
</svg>
